<svg id="LOGO7" xmlns="http://www.w3.org/2000/svg" viewBox="0 0 103.18 71.26"><defs><style>.cls-1{fill:#ff5300;fill-rule:evenodd;}.cls-2{fill:#79bc2f;}</style></defs><polygon class="cls-1" points="18.75 17.53 36.1 17.53 36.1 42.9 18.75 54.74 18.75 17.53 18.75 17.53"/><polygon class="cls-1" points="38.99 9.52 56.34 9.52 56.34 38.1 50.52 33.06 38.99 40.92 38.99 9.52 38.99 9.52"/><polygon class="cls-1" points="59.23 0 76.59 0 76.59 39.92 67.29 47.58 59.23 40.6 59.23 0 59.23 0"/><polygon class="cls-2" points="50.3 36.95 67.24 51.61 84.34 37.54 79.89 33.02 103.18 26.2 95.79 49.19 91.74 45.07 67.65 65.28 48.99 45.65 0 71.26 50.3 36.95 50.3 36.95 50.3 36.95"/></svg>