<svg id="Layer_1" data-name="Layer 1" xmlns="http://www.w3.org/2000/svg" viewBox="0 0 2540.7 1348.42"><defs><style>.cls-1{fill:#ebf2f9;}.cls-2{fill:#ffb93e;}.cls-3{fill:#ffa412;}.cls-4,.cls-6{fill:#82b378;}.cls-5{fill:#a8d29f;}.cls-17,.cls-6{opacity:0.5;}.cls-7{fill:#5f9aa8;}.cls-8{fill:#acc8ea;}.cls-9{fill:#80bdcc;}.cls-10{fill:#d2e4ff;}.cls-11{fill:#ab7041;}.cls-12{fill:#aa413e;}.cls-13{fill:#233862;}.cls-14{fill:#2b478b;}.cls-15{fill:#e49963;}.cls-16{fill:#c65447;}.cls-17,.cls-19{fill:#e2810e;}.cls-18{fill:#699dee;}.cls-20{fill:#d68d5d;}.cls-21{fill:#202f4e;}</style></defs><path class="cls-1" d="M2390.65,900.68c-129.58-45.22-153.2-743.44-584.41-463.69-222.78,144.53-598.44-124.08-909.38-31.3C611.3,490.89,583.77,771.62,611.4,863.1c55.82,184.78-117.87,212.28-279,291.67C79.67,1279.3,265.52,1717,504.28,1719.05s1685.23-4.17,1685.23-4.17,346.85.88,491.09-190.55C2835.82,1318.32,2738.76,1022.15,2390.65,900.68Z" transform="translate(-211.56 -371.06)"/><path class="cls-2" d="M2552.31,1664.42v30.51a11.59,11.59,0,0,1-2,6.56,11.83,11.83,0,0,1-5.51,4.4,11.23,11.23,0,0,1-2.15.6,11,11,0,0,1-2.08.19H2054.71a11.79,11.79,0,0,1-11.74-11.15c0-.2,0-.4,0-.6v-30.51c0-.2,0-.4,0-.6a11.8,11.8,0,0,1,10.35-11.07,13,13,0,0,1,1.39-.08h485.84a11.92,11.92,0,0,1,2.08.19,11.23,11.23,0,0,1,2.15.6,11.83,11.83,0,0,1,5.51,4.4A11.59,11.59,0,0,1,2552.31,1664.42Z" transform="translate(-211.56 -371.06)"/><path class="cls-3" d="M2313.74,1706.68H2053.45c-5.59,0-10.19-5-10.48-11.15,0-.2,0-.4,0-.6v-30.51c0-.2,0-.4,0-.6.26-5.72,4.23-10.4,9.24-11.07a10.06,10.06,0,0,1,1.24-.08h228.32s0,.06,0,.08C2285.45,1668.65,2294,1690.59,2313.74,1706.68Z" transform="translate(-211.56 -371.06)"/><rect class="cls-3" x="2276.11" y="1281.61" width="5.52" height="54.01"/><rect class="cls-3" x="2257.42" y="1281.61" width="5.52" height="54.01"/><rect class="cls-3" x="2235.01" y="1281.61" width="5.52" height="54.01"/><rect class="cls-3" x="2200.65" y="1281.61" width="5.52" height="54.01"/><rect class="cls-3" x="2164.32" y="1281.61" width="5.52" height="54.01"/><rect class="cls-3" x="2108.62" y="1281.61" width="5.52" height="54.01"/><rect class="cls-3" x="2056.47" y="1281.61" width="5.52" height="54.01"/><rect class="cls-3" x="2009.91" y="1281.61" width="5.52" height="54.01"/><rect class="cls-3" x="2293.9" y="1281.61" width="5.52" height="54.01"/><rect class="cls-3" x="2305.66" y="1281.61" width="5.52" height="54.01"/><rect class="cls-3" x="2317.01" y="1281.61" width="5.52" height="54.01"/><path class="cls-3" d="M2542.63,1652.86v53.63a11,11,0,0,1-2.07.19h-3.45v-54h3.45A11,11,0,0,1,2542.63,1652.86Z" transform="translate(-211.56 -371.06)"/><path class="cls-3" d="M2550.3,1657.86v43.63a11.9,11.9,0,0,1-5.52,4.4v-52.43A11.9,11.9,0,0,1,2550.3,1657.86Z" transform="translate(-211.56 -371.06)"/><path class="cls-2" d="M2488.52,1610.5V1641a11.66,11.66,0,0,1-2,6.56,11.79,11.79,0,0,1-5.52,4.4,11.25,11.25,0,0,1-2.15.61l-.68.1a4.89,4.89,0,0,1-.55,0l-.27,0H1990.93a11.79,11.79,0,0,1-11.74-11.15c0-.2,0-.4,0-.6v-30.5c0-.2,0-.4,0-.61a11.8,11.8,0,0,1,11.74-11.15h485.84l.62,0a13.37,13.37,0,0,1,1.45.17,10.57,10.57,0,0,1,2.15.61,8.51,8.51,0,0,1,1,.45c.21.1.41.21.61.33,0,0,0,0,.06,0a5.27,5.27,0,0,1,.59.37.24.24,0,0,1,.1.06l.53.38a12.57,12.57,0,0,1,1.17,1c.11.11.23.23.33.35l.06.06.2.22a.1.1,0,0,0,0,0c.11.14.23.28.34.43s.32.41.47.64A11.64,11.64,0,0,1,2488.52,1610.5Z" transform="translate(-211.56 -371.06)"/><path class="cls-3" d="M2250,1652.75H1989.67c-5.59,0-10.2-5-10.48-11.15,0-.2,0-.4,0-.6v-30.5c0-.2,0-.4,0-.61.28-6.18,4.89-11.15,10.48-11.15H2218c.09.41.19.83.3,1.25,3.79,15.76,12.32,37,31.56,52.68Z" transform="translate(-211.56 -371.06)"/><rect class="cls-3" x="2212.33" y="1227.68" width="5.52" height="54.01"/><rect class="cls-3" x="2193.63" y="1227.68" width="5.52" height="54.01"/><rect class="cls-3" x="2171.22" y="1227.68" width="5.52" height="54.01"/><rect class="cls-3" x="2136.86" y="1227.68" width="5.52" height="54.01"/><rect class="cls-3" x="2100.53" y="1227.68" width="5.52" height="54.01"/><rect class="cls-3" x="2044.84" y="1227.68" width="5.52" height="54.01"/><rect class="cls-3" x="1992.69" y="1227.68" width="5.52" height="54.01"/><rect class="cls-3" x="1946.12" y="1227.68" width="5.52" height="54.01"/><rect class="cls-3" x="2230.12" y="1227.68" width="5.52" height="54.01"/><rect class="cls-3" x="2241.87" y="1227.68" width="5.52" height="54.01"/><rect class="cls-3" x="2253.22" y="1227.68" width="5.52" height="54.01"/><path class="cls-3" d="M2478.84,1598.93v53.64a11.72,11.72,0,0,1-2.07.18h-3.45v-54h3.45A11.72,11.72,0,0,1,2478.84,1598.93Z" transform="translate(-211.56 -371.06)"/><path class="cls-3" d="M2486.51,1603.94v43.62a11.79,11.79,0,0,1-5.52,4.4v-52.42A11.79,11.79,0,0,1,2486.51,1603.94Z" transform="translate(-211.56 -371.06)"/><path class="cls-2" d="M2524.24,1557.73v30.51a11.66,11.66,0,0,1-2,6.56,11.85,11.85,0,0,1-5.52,4.4,11.23,11.23,0,0,1-2.15.6,10.84,10.84,0,0,1-2.07.19H2026.65a11.58,11.58,0,0,1-5.25-1.25,11.79,11.79,0,0,1-6.46-9.42c0-.15,0-.32,0-.48s0-.4,0-.6v-30.51c0-.2,0-.4,0-.6a11.8,11.8,0,0,1,10.35-11.07,12.52,12.52,0,0,1,1.39-.08h485.84a10.84,10.84,0,0,1,2.07.19,11.23,11.23,0,0,1,2.15.6,11.85,11.85,0,0,1,5.52,4.4A11.66,11.66,0,0,1,2524.24,1557.73Z" transform="translate(-211.56 -371.06)"/><path class="cls-3" d="M2285.67,1600H2025.39a9.48,9.48,0,0,1-4.69-1.25,11.86,11.86,0,0,1-5.76-9.42c0-.15,0-.32,0-.48s0-.4,0-.6v-30.51c0-.2,0-.4,0-.6.26-5.72,4.22-10.4,9.24-11.07a10.06,10.06,0,0,1,1.24-.08h228.32a.19.19,0,0,0,0,.08c3.56,15.49,11.73,36.72,30.45,52.68C2284.66,1599.17,2285.16,1599.58,2285.67,1600Z" transform="translate(-211.56 -371.06)"/><rect class="cls-3" x="2248.05" y="1174.92" width="5.52" height="54.01"/><rect class="cls-3" x="2229.35" y="1174.92" width="5.52" height="54.01"/><rect class="cls-3" x="2206.94" y="1174.92" width="5.52" height="54.01"/><rect class="cls-3" x="2172.58" y="1174.92" width="5.52" height="54.01"/><rect class="cls-3" x="2136.25" y="1174.92" width="5.52" height="54.01"/><rect class="cls-3" x="2080.56" y="1174.92" width="5.52" height="54.01"/><rect class="cls-3" x="2028.41" y="1174.92" width="5.52" height="54.01"/><rect class="cls-3" x="1981.84" y="1174.92" width="5.52" height="54.01"/><rect class="cls-3" x="2265.84" y="1174.92" width="5.52" height="54.01"/><rect class="cls-3" x="2277.59" y="1174.92" width="5.52" height="54.01"/><rect class="cls-3" x="2288.94" y="1174.92" width="5.52" height="54.01"/><path class="cls-3" d="M2514.56,1546.17v53.63a11.72,11.72,0,0,1-2.07.19H2509v-54h3.45A10.84,10.84,0,0,1,2514.56,1546.17Z" transform="translate(-211.56 -371.06)"/><path class="cls-3" d="M2522.23,1551.17v43.63a11.85,11.85,0,0,1-5.52,4.4v-52.43A11.79,11.79,0,0,1,2522.23,1551.17Z" transform="translate(-211.56 -371.06)"/><path class="cls-2" d="M2488.52,1503.81v30.5a11.66,11.66,0,0,1-2,6.56,11.79,11.79,0,0,1-5.52,4.4,11.25,11.25,0,0,1-2.15.61l-.68.1-.38,0-.39,0c-.2,0-.41,0-.62,0H1990.93a11.79,11.79,0,0,1-11.74-11.15c0-.2,0-.4,0-.6v-30.5c0-.2,0-.4,0-.61a11.8,11.8,0,0,1,11.74-11.15h485.84a11.72,11.72,0,0,1,2.07.19,10.57,10.57,0,0,1,2.15.61,11.79,11.79,0,0,1,5.52,4.4A11.64,11.64,0,0,1,2488.52,1503.81Z" transform="translate(-211.56 -371.06)"/><path class="cls-3" d="M2250,1546.06H1989.67c-5.59,0-10.2-5-10.48-11.15,0-.2,0-.4,0-.6v-30.5c0-.2,0-.4,0-.61.28-6.18,4.89-11.15,10.48-11.15H2218c3.64,15.88,12.11,37.81,31.86,53.93Z" transform="translate(-211.56 -371.06)"/><rect class="cls-3" x="2212.33" y="1120.99" width="5.52" height="54.01"/><rect class="cls-3" x="2193.63" y="1120.99" width="5.52" height="54.01"/><rect class="cls-3" x="2171.22" y="1120.99" width="5.52" height="54.01"/><rect class="cls-3" x="2136.86" y="1120.99" width="5.52" height="54.01"/><rect class="cls-3" x="2100.53" y="1120.99" width="5.52" height="54.01"/><rect class="cls-3" x="2044.84" y="1120.99" width="5.52" height="54.01"/><rect class="cls-3" x="1992.69" y="1120.99" width="5.52" height="54.01"/><rect class="cls-3" x="1946.12" y="1120.99" width="5.52" height="54.01"/><rect class="cls-3" x="2230.12" y="1120.99" width="5.52" height="54.01"/><rect class="cls-3" x="2241.87" y="1120.99" width="5.52" height="54.01"/><rect class="cls-3" x="2253.22" y="1120.99" width="5.52" height="54.01"/><path class="cls-3" d="M2478.84,1492.24v53.63a10.84,10.84,0,0,1-2.07.19h-3.45v-54h3.45A11.72,11.72,0,0,1,2478.84,1492.24Z" transform="translate(-211.56 -371.06)"/><path class="cls-3" d="M2486.51,1497.24v43.63a11.79,11.79,0,0,1-5.52,4.4v-52.43A11.92,11.92,0,0,1,2486.51,1497.24Z" transform="translate(-211.56 -371.06)"/><path class="cls-4" d="M636.66,1702.1l-65.93-5.67s3.81-40.65-7.79-94.86c-8.55-40-25.52-87.5-58.63-131.45-56.47-74.94-224.19-116.86-224.19-116.86v-9.71l6-.65a24.09,24.09,0,0,0-6-2.86V1317.1a81.09,81.09,0,0,1,19.06,1.87,130,130,0,0,0-19.06-3.42v-12.06c243,6.5,322.2,153.25,347,266.82C643.05,1643,636.66,1702.1,636.66,1702.1Z" transform="translate(-211.56 -371.06)"/><path class="cls-5" d="M925.22,1680.77,636.66,1702.1c-1.49-44.44-13.09-90.41-24.31-125.25a591.12,591.12,0,0,0-22.07-58.58C504,1329.12,280.12,1303.49,280.12,1303.49l248.44-101.74c120,9,204.21,66.67,263.1,139C907,1482.54,925.22,1680.77,925.22,1680.77Z" transform="translate(-211.56 -371.06)"/><path class="cls-6" d="M925.22,1680.77,636.66,1702.1l-65.93-5.67s3.81-40.65-7.79-94.86a391.49,391.49,0,0,1,49.41-24.72q7.6-3.22,14.8-6.54c183.72-84.79,166.61-216.88,164.51-229.52C907,1482.54,925.22,1680.77,925.22,1680.77Z" transform="translate(-211.56 -371.06)"/><path class="cls-4" d="M902.52,1703l-257.15-5,.91-5c.13-.75,13.34-76.14-17.49-161.87-18.06-50.22-47.51-94.15-87.52-130.58-50.13-45.64-117.12-79.61-199.12-101l-12.63-3.29,200.71-79.88.78,0c2.17,0,53.86-.83,120.31,30.6,38.95,18.42,74.81,44.16,106.58,76.5,39.64,40.35,73,91.15,99.11,151,2.06,4.6,50.91,114.26,48.33,180.1v.08Zm-247.07-13.34,239,4.62,2.33-40c1-26.3-6.86-65.08-22.8-112.13-12.11-35.75-24.68-63.86-24.8-64.14-25.68-58.78-58.36-108.63-97.17-148.2-31-31.61-66-56.77-103.93-74.79-41.2-19.56-77.12-26.37-97.91-28.73a66.41,66.41,0,0,0-32.17,4.29L378.9,1285.92a8.32,8.32,0,0,0,.55,15.65c67.64,21.78,124,52.94,167.77,92.89A331.17,331.17,0,0,1,637,1528.67c16.44,45.89,20.39,88.49,20.81,116.15A308.74,308.74,0,0,1,655.45,1689.65Z" transform="translate(-211.56 -371.06)"/><path class="cls-4" d="M676.57,1339.82c-42.36,0-65.83,25.33-65.83,67.7s43.87,68,86.23,68,67.19-25.6,67.19-68S718.93,1339.82,676.57,1339.82Z" transform="translate(-211.56 -371.06)"/><path class="cls-2" d="M314.29,1664.22v30.5a11.59,11.59,0,0,0,2,6.56,11.77,11.77,0,0,0,5.51,4.4,11.23,11.23,0,0,0,2.15.6,11,11,0,0,0,2.08.19H811.89a11.68,11.68,0,0,0,5.42-1.33,11.83,11.83,0,0,0,6.28-9.29c0-.18,0-.35,0-.53s0-.4,0-.6v-30.5c0-.21,0-.41,0-.61a11.79,11.79,0,0,0-11.74-11.15H326.05a11.92,11.92,0,0,0-2.08.19,11.23,11.23,0,0,0-2.15.6,11.83,11.83,0,0,0-5.51,4.4A11.63,11.63,0,0,0,314.29,1664.22Z" transform="translate(-211.56 -371.06)"/><path class="cls-3" d="M552.86,1706.47H813.15a9.5,9.5,0,0,0,4.83-1.33,11.92,11.92,0,0,0,5.61-9.29c0-.18,0-.35,0-.53s0-.4,0-.6v-30.5c0-.21,0-.41,0-.61-.29-6.19-4.9-11.15-10.48-11.15H584.83c-3.55,15.47-11.69,36.69-30.37,52.68C553.94,1705.59,553.4,1706,552.86,1706.47Z" transform="translate(-211.56 -371.06)"/><rect class="cls-3" x="373.41" y="1652.46" width="5.52" height="54.01" transform="translate(540.78 2987.88) rotate(180)"/><rect class="cls-3" x="392.1" y="1652.46" width="5.52" height="54.01" transform="translate(578.16 2987.88) rotate(180)"/><rect class="cls-3" x="414.51" y="1652.46" width="5.52" height="54.01" transform="translate(622.99 2987.88) rotate(180)"/><rect class="cls-3" x="448.87" y="1652.46" width="5.52" height="54.01" transform="translate(691.71 2987.88) rotate(180)"/><rect class="cls-3" x="485.2" y="1652.46" width="5.52" height="54.01" transform="translate(764.37 2987.88) rotate(180)"/><rect class="cls-3" x="540.9" y="1652.46" width="5.52" height="54.01" transform="translate(875.76 2987.88) rotate(180)"/><rect class="cls-3" x="593.05" y="1652.46" width="5.52" height="54.01" transform="translate(980.06 2987.88) rotate(180)"/><rect class="cls-3" x="639.61" y="1652.46" width="5.52" height="54.01" transform="translate(1073.19 2987.88) rotate(180)"/><rect class="cls-3" x="355.62" y="1652.46" width="5.52" height="54.01" transform="translate(505.2 2987.88) rotate(180)"/><rect class="cls-3" x="343.86" y="1652.46" width="5.52" height="54.01" transform="translate(481.69 2987.88) rotate(180)"/><rect class="cls-3" x="332.51" y="1652.46" width="5.52" height="54.01" transform="translate(458.99 2987.88) rotate(180)"/><path class="cls-3" d="M324,1652.65v53.63a11,11,0,0,0,2.08.19h3.45v-54h-3.45A11.92,11.92,0,0,0,324,1652.65Z" transform="translate(-211.56 -371.06)"/><path class="cls-3" d="M316.3,1657.65v43.63a11.84,11.84,0,0,0,5.52,4.4v-52.43A12,12,0,0,0,316.3,1657.65Z" transform="translate(-211.56 -371.06)"/><path class="cls-2" d="M274.59,1610.2v30.51a11.66,11.66,0,0,0,2,6.56,11.85,11.85,0,0,0,5.52,4.4,11.23,11.23,0,0,0,2.15.6,11,11,0,0,0,2.07.19H772.18a11.8,11.8,0,0,0,11.75-11.15c0-.2,0-.4,0-.6V1610.2c0-.2,0-.4,0-.6a11.82,11.82,0,0,0-10.36-11.07,12.66,12.66,0,0,0-1.39-.08H286.34a11,11,0,0,0-2.07.19,11.23,11.23,0,0,0-2.15.6,11.85,11.85,0,0,0-5.52,4.4A11.66,11.66,0,0,0,274.59,1610.2Z" transform="translate(-211.56 -371.06)"/><path class="cls-3" d="M513.16,1652.46H773.44c5.59,0,10.2-5,10.49-11.15,0-.2,0-.4,0-.6V1610.2c0-.2,0-.4,0-.6-.26-5.72-4.23-10.4-9.24-11.07a10.23,10.23,0,0,0-1.25-.08H545.13a.31.31,0,0,0,0,.08C541.45,1614.43,533,1636.37,513.16,1652.46Z" transform="translate(-211.56 -371.06)"/><rect class="cls-3" x="333.7" y="1598.45" width="5.52" height="54.01" transform="translate(461.37 2879.85) rotate(180)"/><rect class="cls-3" x="352.4" y="1598.45" width="5.52" height="54.01" transform="translate(498.75 2879.85) rotate(180)"/><rect class="cls-3" x="374.81" y="1598.45" width="5.52" height="54.01" transform="translate(543.58 2879.85) rotate(180)"/><rect class="cls-3" x="409.17" y="1598.45" width="5.52" height="54.01" transform="translate(612.3 2879.85) rotate(180)"/><rect class="cls-3" x="445.5" y="1598.45" width="5.52" height="54.01" transform="translate(684.96 2879.85) rotate(180)"/><rect class="cls-3" x="501.19" y="1598.45" width="5.52" height="54.01" transform="translate(796.35 2879.85) rotate(180)"/><rect class="cls-3" x="553.34" y="1598.45" width="5.52" height="54.01" transform="translate(900.65 2879.85) rotate(180)"/><rect class="cls-3" x="599.91" y="1598.45" width="5.52" height="54.01" transform="translate(993.78 2879.85) rotate(180)"/><rect class="cls-3" x="315.91" y="1598.45" width="5.52" height="54.01" transform="translate(425.79 2879.85) rotate(180)"/><rect class="cls-3" x="304.16" y="1598.45" width="5.52" height="54.01" transform="translate(402.28 2879.85) rotate(180)"/><rect class="cls-3" x="292.81" y="1598.45" width="5.52" height="54.01" transform="translate(379.58 2879.85) rotate(180)"/><path class="cls-3" d="M284.27,1598.64v53.63a11.72,11.72,0,0,0,2.07.19h3.45v-54h-3.45A10.84,10.84,0,0,0,284.27,1598.64Z" transform="translate(-211.56 -371.06)"/><path class="cls-3" d="M276.6,1603.64v43.63a11.85,11.85,0,0,0,5.52,4.4v-52.43A11.85,11.85,0,0,0,276.6,1603.64Z" transform="translate(-211.56 -371.06)"/><path class="cls-2" d="M338.37,1556.28v30.5a11.59,11.59,0,0,0,2,6.56,11.82,11.82,0,0,0,5.51,4.4,11.25,11.25,0,0,0,2.15.61l.69.1a4.93,4.93,0,0,0,.54,0l.28,0H836a11.79,11.79,0,0,0,11.74-11.15c0-.2,0-.4,0-.6v-30.5c0-.2,0-.4,0-.61A11.8,11.8,0,0,0,836,1544.52H350.13l-.63,0a14,14,0,0,0-1.45.17,10.57,10.57,0,0,0-2.15.61,9.28,9.28,0,0,0-1,.45c-.2.1-.41.21-.6.33a.11.11,0,0,0-.07,0l-.59.37a.35.35,0,0,0-.09.07c-.19.12-.36.25-.53.38a9.5,9.5,0,0,0-1.17,1,3.61,3.61,0,0,0-.33.35l-.06.06-.2.22,0,.05c-.12.14-.23.28-.34.43s-.32.41-.47.63A11.63,11.63,0,0,0,338.37,1556.28Z" transform="translate(-211.56 -371.06)"/><path class="cls-3" d="M577,1598.53H837.23c5.59,0,10.19-5,10.48-11.15,0-.2,0-.4,0-.6v-30.5c0-.2,0-.4,0-.61-.29-6.18-4.89-11.15-10.48-11.15H608.91c-.09.41-.19.83-.3,1.25-3.79,15.76-12.33,37-31.56,52.68Z" transform="translate(-211.56 -371.06)"/><rect class="cls-3" x="397.49" y="1544.52" width="5.52" height="54.01" transform="translate(588.94 2772) rotate(180)"/><rect class="cls-3" x="416.18" y="1544.52" width="5.52" height="54.01" transform="translate(626.33 2772) rotate(180)"/><rect class="cls-3" x="438.6" y="1544.52" width="5.52" height="54.01" transform="translate(671.15 2772) rotate(180)"/><rect class="cls-3" x="472.95" y="1544.52" width="5.52" height="54.01" transform="translate(739.87 2772) rotate(180)"/><rect class="cls-3" x="509.28" y="1544.52" width="5.52" height="54.01" transform="translate(812.53 2772) rotate(180)"/><rect class="cls-3" x="564.98" y="1544.52" width="5.52" height="54.01" transform="translate(923.92 2772) rotate(180)"/><rect class="cls-3" x="617.13" y="1544.52" width="5.52" height="54.01" transform="translate(1028.22 2772) rotate(180)"/><rect class="cls-3" x="663.69" y="1544.52" width="5.52" height="54.01" transform="translate(1121.35 2772) rotate(180)"/><rect class="cls-3" x="379.7" y="1544.52" width="5.52" height="54.01" transform="translate(553.36 2772) rotate(180)"/><rect class="cls-3" x="367.94" y="1544.52" width="5.52" height="54.01" transform="translate(529.85 2772) rotate(180)"/><rect class="cls-3" x="356.59" y="1544.52" width="5.52" height="54.01" transform="translate(507.15 2772) rotate(180)"/><path class="cls-3" d="M348.05,1544.71v53.64a11.92,11.92,0,0,0,2.08.18h3.45v-54h-3.45A11.92,11.92,0,0,0,348.05,1544.71Z" transform="translate(-211.56 -371.06)"/><path class="cls-3" d="M340.39,1549.71v43.63a11.82,11.82,0,0,0,5.51,4.4v-52.42A11.86,11.86,0,0,0,340.39,1549.71Z" transform="translate(-211.56 -371.06)"/><path class="cls-2" d="M302.65,1503.51V1534a11.59,11.59,0,0,0,2,6.56,11.88,11.88,0,0,0,5.51,4.4,11.13,11.13,0,0,0,2.16.6,10.84,10.84,0,0,0,2.07.19H800.25a11.61,11.61,0,0,0,5.25-1.25,11.81,11.81,0,0,0,6.46-9.42c0-.15,0-.32,0-.48s0-.4,0-.6v-30.51c0-.2,0-.4,0-.6a11.79,11.79,0,0,0-10.35-11.07,12.81,12.81,0,0,0-1.39-.08H314.41a10.84,10.84,0,0,0-2.07.19,11.13,11.13,0,0,0-2.16.6,11.88,11.88,0,0,0-5.51,4.4A11.59,11.59,0,0,0,302.65,1503.51Z" transform="translate(-211.56 -371.06)"/><path class="cls-3" d="M541.23,1545.77H801.51a9.44,9.44,0,0,0,4.68-1.25,11.87,11.87,0,0,0,5.77-9.42c0-.15,0-.32,0-.48s0-.4,0-.6v-30.51c0-.2,0-.4,0-.6-.26-5.72-4.22-10.4-9.24-11.07a10.06,10.06,0,0,0-1.24-.08H573.19s0,.06,0,.08c-3.56,15.49-11.73,36.72-30.45,52.68C542.23,1545,541.73,1545.36,541.23,1545.77Z" transform="translate(-211.56 -371.06)"/><rect class="cls-3" x="361.77" y="1491.76" width="5.52" height="54.01" transform="translate(517.51 2666.47) rotate(180)"/><rect class="cls-3" x="380.46" y="1491.76" width="5.52" height="54.01" transform="translate(554.89 2666.47) rotate(180)"/><rect class="cls-3" x="402.88" y="1491.76" width="5.52" height="54.01" transform="translate(599.72 2666.47) rotate(180)"/><rect class="cls-3" x="437.23" y="1491.76" width="5.52" height="54.01" transform="translate(668.43 2666.47) rotate(180)"/><rect class="cls-3" x="473.56" y="1491.76" width="5.52" height="54.01" transform="translate(741.09 2666.47) rotate(180)"/><rect class="cls-3" x="529.26" y="1491.76" width="5.52" height="54.01" transform="translate(852.48 2666.47) rotate(180)"/><rect class="cls-3" x="581.41" y="1491.76" width="5.52" height="54.01" transform="translate(956.78 2666.47) rotate(180)"/><rect class="cls-3" x="627.98" y="1491.76" width="5.52" height="54.01" transform="translate(1049.91 2666.47) rotate(180)"/><rect class="cls-3" x="343.98" y="1491.76" width="5.52" height="54.01" transform="translate(481.92 2666.47) rotate(180)"/><rect class="cls-3" x="332.23" y="1491.76" width="5.52" height="54.01" transform="translate(458.41 2666.47) rotate(180)"/><rect class="cls-3" x="320.88" y="1491.76" width="5.52" height="54.01" transform="translate(435.71 2666.47) rotate(180)"/><path class="cls-3" d="M312.34,1492v53.63a11.72,11.72,0,0,0,2.07.19h3.45v-54h-3.45A10.84,10.84,0,0,0,312.34,1492Z" transform="translate(-211.56 -371.06)"/><path class="cls-3" d="M304.67,1497v43.63a11.88,11.88,0,0,0,5.51,4.4v-52.43A11.82,11.82,0,0,0,304.67,1497Z" transform="translate(-211.56 -371.06)"/><path class="cls-2" d="M338.37,1449.59v30.5a11.59,11.59,0,0,0,2,6.56,11.82,11.82,0,0,0,5.51,4.4,11.25,11.25,0,0,0,2.15.61l.69.1.38,0,.38,0c.21,0,.42,0,.63,0H836a11.79,11.79,0,0,0,11.74-11.15c0-.2,0-.4,0-.6v-30.5c0-.2,0-.41,0-.61A11.8,11.8,0,0,0,836,1437.83H350.13a11.92,11.92,0,0,0-2.08.19,10.57,10.57,0,0,0-2.15.61,11.86,11.86,0,0,0-5.51,4.39A11.63,11.63,0,0,0,338.37,1449.59Z" transform="translate(-211.56 -371.06)"/><path class="cls-3" d="M577,1491.84H837.23c5.59,0,10.19-5,10.48-11.15,0-.2,0-.4,0-.6v-30.5c0-.2,0-.41,0-.61-.29-6.18-4.89-11.15-10.48-11.15H608.91c-3.64,15.88-12.11,37.81-31.86,53.93Z" transform="translate(-211.56 -371.06)"/><rect class="cls-3" x="397.49" y="1437.83" width="5.52" height="54.01" transform="translate(588.94 2558.62) rotate(180)"/><rect class="cls-3" x="416.18" y="1437.83" width="5.52" height="54.01" transform="translate(626.33 2558.62) rotate(180)"/><rect class="cls-3" x="438.6" y="1437.83" width="5.52" height="54.01" transform="translate(671.15 2558.62) rotate(180)"/><rect class="cls-3" x="472.95" y="1437.83" width="5.52" height="54.01" transform="translate(739.87 2558.62) rotate(180)"/><rect class="cls-3" x="509.28" y="1437.83" width="5.52" height="54.01" transform="translate(812.53 2558.62) rotate(180)"/><rect class="cls-3" x="564.98" y="1437.83" width="5.52" height="54.01" transform="translate(923.92 2558.62) rotate(180)"/><rect class="cls-3" x="617.13" y="1437.83" width="5.52" height="54.01" transform="translate(1028.22 2558.62) rotate(180)"/><rect class="cls-3" x="452.13" y="1066.77" width="5.52" height="54.01"/><rect class="cls-3" x="379.7" y="1437.83" width="5.52" height="54.01" transform="translate(553.36 2558.62) rotate(180)"/><rect class="cls-3" x="367.94" y="1437.83" width="5.52" height="54.01" transform="translate(529.85 2558.62) rotate(180)"/><rect class="cls-3" x="356.59" y="1437.83" width="5.52" height="54.01" transform="translate(507.15 2558.62) rotate(180)"/><path class="cls-3" d="M348.05,1438v53.63a11,11,0,0,0,2.08.19h3.45v-54h-3.45A11.92,11.92,0,0,0,348.05,1438Z" transform="translate(-211.56 -371.06)"/><path class="cls-3" d="M340.39,1443v43.63a11.82,11.82,0,0,0,5.51,4.4v-52.43A11.94,11.94,0,0,0,340.39,1443Z" transform="translate(-211.56 -371.06)"/><rect class="cls-7" x="543.67" y="406.09" width="1332.84" height="762.8"/><rect class="cls-8" x="564.52" y="406.09" width="216.97" height="47.9"/><rect class="cls-9" x="587.56" y="453.99" width="170.88" height="47.9"/><rect class="cls-8" x="1638.7" y="406.09" width="216.97" height="47.9"/><rect class="cls-9" x="1661.74" y="453.99" width="170.88" height="47.9"/><rect class="cls-8" x="1280.63" y="406.09" width="216.97" height="47.9"/><rect class="cls-9" x="1303.67" y="453.99" width="170.88" height="47.9"/><rect class="cls-8" x="922.59" y="406.09" width="216.97" height="47.9"/><rect class="cls-9" x="945.63" y="453.99" width="170.88" height="47.9"/><rect class="cls-8" x="564.52" y="1120.99" width="216.97" height="47.9"/><rect class="cls-9" x="587.56" y="1073.09" width="170.88" height="47.9"/><rect class="cls-8" x="1638.7" y="1120.99" width="216.97" height="47.9"/><rect class="cls-9" x="1661.74" y="1073.09" width="170.88" height="47.9"/><rect class="cls-8" x="1280.63" y="1120.99" width="216.97" height="47.9"/><rect class="cls-9" x="1303.67" y="1073.09" width="170.88" height="47.9"/><rect class="cls-8" x="922.59" y="1120.99" width="216.97" height="47.9"/><rect class="cls-9" x="945.63" y="1073.09" width="170.88" height="47.9"/><polygon class="cls-10" points="753.94 1073.09 592.06 1073.09 617.35 501.9 728.65 501.9 753.94 1073.09"/><polygon class="cls-10" points="1112.01 1073.09 950.13 1073.09 975.42 501.9 1086.72 501.9 1112.01 1073.09"/><polygon class="cls-10" points="1474.55 1073.09 1312.67 1073.09 1337.96 501.9 1449.26 501.9 1474.55 1073.09"/><polygon class="cls-10" points="1828.13 1073.09 1666.24 1073.09 1691.54 501.9 1802.83 501.9 1828.13 1073.09"/><rect class="cls-9" x="518.71" y="372.92" width="1382.76" height="33.17"/><rect class="cls-8" x="495.38" y="317.41" width="1429.43" height="55.51"/><rect class="cls-10" x="488.64" y="1168.89" width="1429.43" height="55.51"/><rect class="cls-8" x="439.77" y="1224.4" width="1527.16" height="55.51"/><rect class="cls-9" x="373.88" y="1279.91" width="1658.96" height="55.51"/><polygon class="cls-10" points="568.23 316.96 1210.09 79.2 1851.95 316.96 568.23 316.96"/><polygon class="cls-9" points="780.09 277.73 1210.09 118.44 1640.1 277.73 780.09 277.73"/><path class="cls-7" d="M1336.9,609a17.59,17.59,0,0,1-2.79,10.23,19.23,19.23,0,0,1-7.67,6.39,39.16,39.16,0,0,1-11.62,3.28,105.63,105.63,0,0,1-14.63.94c-4.19,0-7.94-.13-11.27-.38s-6.94-.56-10.81-.93V561.46c2.94-.38,6.16-.69,9.64-.94s7.56-.38,12.2-.38a81.54,81.54,0,0,1,12.38.89,35,35,0,0,1,10.05,3,17.59,17.59,0,0,1,6.79,5.63,14.92,14.92,0,0,1,2.5,8.87,14,14,0,0,1-2.44,8,17,17,0,0,1-6.16,5.59,29.31,29.31,0,0,1,5.17,2.2,18,18,0,0,1,4.42,3.38,15.66,15.66,0,0,1,3.08,4.84A16.9,16.9,0,0,1,1336.9,609Zm-38.69-22h3.25a15.49,15.49,0,0,0,7.79-1.64q2.79-1.65,2.79-5.68a5.32,5.32,0,0,0-1-3.29,7,7,0,0,0-2.5-2.06,11.15,11.15,0,0,0-3.37-1,23.79,23.79,0,0,0-3.6-.29h-1.68a13.36,13.36,0,0,0-1.69.1Zm0,13.33v15.77c.54.06,1.22.11,2,.14s1.88,0,3.2,0a27.32,27.32,0,0,0,4.47-.37,15.1,15.1,0,0,0,4.13-1.27,7.65,7.65,0,0,0,3-2.44,6.57,6.57,0,0,0,1.1-3.89q0-4.51-3.66-6.25a22.29,22.29,0,0,0-9.47-1.73Z" transform="translate(-211.56 -371.06)"/><path class="cls-7" d="M1361.18,628.57c-1.78.24-3.41.43-4.88.56s-2.91.19-4.3.19-3-.08-4.82-.24-3.85-.39-6.1-.7l.41-6.75,25.61-60.27c2-.19,3.9-.34,5.64-.47s3.5-.19,5.29-.19c1.47,0,3.07.07,4.82.19s3.73.28,6,.47l26.08,60.37-.4,6.74a94.06,94.06,0,0,1-11.62.85c-1.55,0-3.1-.07-4.65-.19s-3.21-.32-5-.56l-4.41-13.05a62.83,62.83,0,0,1-6.22,1.13,46,46,0,0,1-11.32,0c-1.86-.22-3.8-.54-5.81-1ZM1377.44,579l-7.78,24.12q2,.47,3.72.75a22.25,22.25,0,0,0,3.6.28,33.31,33.31,0,0,0,3.89-.23,40,40,0,0,0,4-.71Z" transform="translate(-211.56 -371.06)"/><path class="cls-7" d="M1422.06,561.46c1.7-.25,3.25-.44,4.64-.57s2.75-.19,4.07-.19a41.36,41.36,0,0,1,4.36.24c1.51.16,2.8.33,3.89.52l27,36.79V561.46q3-.37,5.46-.57c1.63-.12,3.1-.19,4.42-.19s2.71.07,4.18.19,3,.32,4.65.57l-.12,67a30.53,30.53,0,0,1-3.37.56,40.43,40.43,0,0,1-10,0c-1.55-.22-2.67-.39-3.37-.52l-27.07-36.6v36.6a57.81,57.81,0,0,1-9.29.85,59.92,59.92,0,0,1-9.41-.85Z" transform="translate(-211.56 -371.06)"/><path class="cls-7" d="M1498.62,561.46q3.14-.37,5.69-.57c1.71-.12,3.22-.19,4.53-.19s3,.07,4.71.19,3.62.32,5.63.57v67a78.38,78.38,0,0,1-10.22.85,77,77,0,0,1-10.34-.85Zm44.85,32.38,22.13,27.89-.41,6.74a48.76,48.76,0,0,1-5.28.61q-3.32.24-6,.24c-2.25,0-4.41-.08-6.5-.24s-3.88-.36-5.35-.61l-21.26-33.79.41-6.74,19.23-26.48q3.48-.48,6-.61t5.22-.15c.86,0,1.82,0,2.91,0s2.15.1,3.19.19,5-6.32,5.93-6.23a59.13,59.13,0,0,1-.41,6.75Z" transform="translate(-211.56 -371.06)"/><path class="cls-10" d="M1337.3,602.3a17.58,17.58,0,0,1-2.78,10.23,19.19,19.19,0,0,1-7.67,6.38,39.24,39.24,0,0,1-11.62,3.29,107.32,107.32,0,0,1-14.64.93q-6.27,0-11.27-.37t-10.8-.94V554.71c2.94-.37,6.15-.69,9.64-.94s7.55-.37,12.2-.37a80.14,80.14,0,0,1,12.37.89,34.51,34.51,0,0,1,10,3,17.8,17.8,0,0,1,6.8,5.63,15,15,0,0,1,2.5,8.87,14.1,14.1,0,0,1-2.44,8,16.87,16.87,0,0,1-6.16,5.58,29.68,29.68,0,0,1,5.17,2.21,17.66,17.66,0,0,1,4.41,3.38,15.31,15.31,0,0,1,3.08,4.83A16.8,16.8,0,0,1,1337.3,602.3Zm-38.68-22h3.25c3.33,0,5.93-.54,7.78-1.64s2.79-3,2.79-5.68a5.31,5.31,0,0,0-1-3.28,6.87,6.87,0,0,0-2.49-2.07,11.44,11.44,0,0,0-3.37-1,23.75,23.75,0,0,0-3.6-.28h-1.69a13.27,13.27,0,0,0-1.68.09Zm0,13.33v15.77c.54.06,1.22.11,2,.14s1.88,0,3.2,0a27.35,27.35,0,0,0,4.47-.38,15.38,15.38,0,0,0,4.12-1.26,7.7,7.7,0,0,0,3-2.44,6.6,6.6,0,0,0,1.1-3.9q0-4.5-3.66-6.24a22.16,22.16,0,0,0-9.47-1.74Z" transform="translate(-211.56 -371.06)"/><path class="cls-10" d="M1361.58,621.82c-1.78.25-3.4.44-4.87.56s-2.91.19-4.3.19-3-.08-4.83-.23-3.85-.39-6.09-.71l26-67q3-.29,5.64-.47c1.74-.13,3.5-.19,5.28-.19,1.47,0,3.08.06,4.82.19s3.74.28,6,.47l25.67,67.11a93.73,93.73,0,0,1-11.62.84c-1.55,0-3.1-.06-4.64-.19s-3.22-.31-5-.56l-4.41-13.05a60,60,0,0,1-6.22,1.13,45.43,45.43,0,0,1-11.33.05c-1.86-.22-3.79-.55-5.81-1Zm16.27-49.56-7.78,24.12c1.31.32,2.55.57,3.71.76a23.67,23.67,0,0,0,3.61.28,31.37,31.37,0,0,0,3.89-.24,40.32,40.32,0,0,0,4-.7Z" transform="translate(-211.56 -371.06)"/><path class="cls-10" d="M1422.46,554.71c1.71-.25,3.26-.44,4.65-.56s2.75-.19,4.07-.19,2.84.08,4.35.23,2.81.33,3.9.52l27,36.79V554.71q3-.37,5.46-.56c1.63-.13,3.1-.19,4.42-.19s2.71.06,4.18.19,3,.31,4.65.56l-.12,67c-.78.18-1.9.37-3.37.56a41.12,41.12,0,0,1-10,0c-1.55-.22-2.67-.39-3.37-.51l-27.07-36.61v36.61a57.83,57.83,0,0,1-9.3.84,60,60,0,0,1-9.41-.84Z" transform="translate(-211.56 -371.06)"/><path class="cls-10" d="M1499,554.71c2.09-.25,4-.44,5.69-.56s3.21-.19,4.53-.19,3,.06,4.71.19,3.62.31,5.63.56v67a78.25,78.25,0,0,1-10.22.84,76.66,76.66,0,0,1-10.34-.84Zm44.84,32.38,21.73,34.64a48.68,48.68,0,0,1-5.29.61q-3.32.23-6,.23-3.37,0-6.51-.23c-2.09-.16-3.87-.36-5.34-.61l-21.26-33.79,19.63-33.23c2.32-.31,4.34-.52,6-.61s3.45-.14,5.23-.14c.85,0,1.82,0,2.9,0s2.15.09,3.2.18l3,.29,2.5.23Z" transform="translate(-211.56 -371.06)"/><path class="cls-2" d="M1169.37,1664.56v30.5a11.57,11.57,0,0,0,2,6.56,11.82,11.82,0,0,0,5.51,4.4,10.57,10.57,0,0,0,2.15.61,11.92,11.92,0,0,0,2.08.19H1667a11.61,11.61,0,0,0,5.25-1.25,11.83,11.83,0,0,0,6.46-9.42l0-.49c0-.2,0-.4,0-.6v-30.5c0-.2,0-.4,0-.61a11.79,11.79,0,0,0-10.35-11.06,10.7,10.7,0,0,0-1.39-.09H1181.13a11.92,11.92,0,0,0-2.08.19,10.57,10.57,0,0,0-2.15.61,11.82,11.82,0,0,0-5.51,4.4A11.57,11.57,0,0,0,1169.37,1664.56Z" transform="translate(-211.56 -371.06)"/><path class="cls-3" d="M1408,1706.82h260.28a9.44,9.44,0,0,0,4.68-1.25,11.88,11.88,0,0,0,5.77-9.42l0-.49c0-.2,0-.4,0-.6v-30.5c0-.2,0-.4,0-.61-.26-5.71-4.22-10.39-9.24-11.06a8.42,8.42,0,0,0-1.24-.09H1439.91s0,.06,0,.09c-3.56,15.48-11.73,36.71-30.45,52.68Z" transform="translate(-211.56 -371.06)"/><rect class="cls-3" x="1228.49" y="1652.8" width="5.52" height="54.01" transform="translate(2250.94 2988.56) rotate(180)"/><rect class="cls-3" x="1247.18" y="1652.8" width="5.52" height="54.01" transform="translate(2288.33 2988.56) rotate(180)"/><rect class="cls-3" x="1269.6" y="1652.8" width="5.52" height="54.01" transform="translate(2333.16 2988.56) rotate(180)"/><rect class="cls-3" x="1303.95" y="1652.8" width="5.52" height="54.01" transform="translate(2401.87 2988.56) rotate(180)"/><rect class="cls-3" x="1340.28" y="1652.8" width="5.52" height="54.01" transform="translate(2474.53 2988.56) rotate(180)"/><rect class="cls-3" x="1395.98" y="1652.8" width="5.52" height="54.01" transform="translate(2585.92 2988.56) rotate(180)"/><rect class="cls-3" x="1448.13" y="1652.8" width="5.52" height="54.01" transform="translate(2690.22 2988.56) rotate(180)"/><rect class="cls-3" x="1494.69" y="1652.8" width="5.52" height="54.01" transform="translate(2783.35 2988.56) rotate(180)"/><rect class="cls-3" x="1210.7" y="1652.8" width="5.52" height="54.01" transform="translate(2215.36 2988.56) rotate(180)"/><rect class="cls-3" x="1198.94" y="1652.8" width="5.52" height="54.01" transform="translate(2191.85 2988.56) rotate(180)"/><rect class="cls-3" x="1187.59" y="1652.8" width="5.52" height="54.01" transform="translate(2169.15 2988.56) rotate(180)"/><path class="cls-3" d="M1179.05,1653v53.64a11.92,11.92,0,0,0,2.08.18h3.45v-54h-3.45A11.92,11.92,0,0,0,1179.05,1653Z" transform="translate(-211.56 -371.06)"/><path class="cls-3" d="M1171.39,1658v43.63a11.82,11.82,0,0,0,5.51,4.4V1653.6A11.86,11.86,0,0,0,1171.39,1658Z" transform="translate(-211.56 -371.06)"/><path class="cls-2" d="M1133.65,1610.63v30.5a11.63,11.63,0,0,0,2,6.57,11.88,11.88,0,0,0,5.51,4.4,11.13,11.13,0,0,0,2.16.6c.22,0,.45.08.68.1l.38,0c.12,0,.25,0,.38,0l.63,0h485.84a11.8,11.8,0,0,0,11.74-11.15c0-.2,0-.4,0-.61v-30.5c0-.2,0-.4,0-.6a11.79,11.79,0,0,0-11.74-11.15H1145.41a10.84,10.84,0,0,0-2.07.19,11.13,11.13,0,0,0-2.16.6,11.82,11.82,0,0,0-5.51,4.4A11.59,11.59,0,0,0,1133.65,1610.63Z" transform="translate(-211.56 -371.06)"/><path class="cls-3" d="M1372.23,1652.89h260.28c5.59,0,10.19-5,10.48-11.15,0-.2,0-.4,0-.61v-30.5c0-.2,0-.4,0-.6-.29-6.19-4.89-11.15-10.48-11.15H1404.19c-3.64,15.87-12.11,37.81-31.86,53.92Z" transform="translate(-211.56 -371.06)"/><rect class="cls-3" x="1192.77" y="1598.88" width="5.52" height="54.01" transform="translate(2179.5 2880.71) rotate(180)"/><rect class="cls-3" x="1211.46" y="1598.88" width="5.52" height="54.01" transform="translate(2216.89 2880.71) rotate(180)"/><rect class="cls-3" x="1233.88" y="1598.88" width="5.52" height="54.01" transform="translate(2261.72 2880.71) rotate(180)"/><rect class="cls-3" x="1268.23" y="1598.88" width="5.52" height="54.01" transform="translate(2330.43 2880.71) rotate(180)"/><rect class="cls-3" x="1304.56" y="1598.88" width="5.52" height="54.01" transform="translate(2403.09 2880.71) rotate(180)"/><rect class="cls-3" x="1360.26" y="1598.88" width="5.52" height="54.01" transform="translate(2514.48 2880.71) rotate(180)"/><rect class="cls-3" x="1412.41" y="1598.88" width="5.52" height="54.01" transform="translate(2618.78 2880.71) rotate(180)"/><rect class="cls-3" x="1247.41" y="1227.82" width="5.52" height="54.01"/><rect class="cls-3" x="1174.98" y="1598.88" width="5.52" height="54.01" transform="translate(2143.92 2880.71) rotate(180)"/><rect class="cls-3" x="1163.23" y="1598.88" width="5.52" height="54.01" transform="translate(2120.41 2880.71) rotate(180)"/><rect class="cls-3" x="1151.87" y="1598.88" width="5.52" height="54.01" transform="translate(2097.71 2880.71) rotate(180)"/><path class="cls-3" d="M1143.34,1599.07v53.63a11.72,11.72,0,0,0,2.07.19h3.45v-54h-3.45A10.84,10.84,0,0,0,1143.34,1599.07Z" transform="translate(-211.56 -371.06)"/><path class="cls-3" d="M1135.67,1604.07v43.63a11.86,11.86,0,0,0,5.51,4.39v-52.42A11.82,11.82,0,0,0,1135.67,1604.07Z" transform="translate(-211.56 -371.06)"/><g id="man"><path class="cls-11" d="M1804.33,1065.15s24.06-6.47,35.15-18,29.4-8.07,35.85-5.29,9.9,14.35,2.08,14c-11.82-.52-16.58,15.63-35.22,18.53s-38.82,14-38.82,14Z" transform="translate(-211.56 -371.06)"/><path class="cls-12" d="M1661.12,921.73s27.59,161.42,72.88,177.56c25.39,9,76.15-14.4,104.37-29.06l-9-15.32s-54,7.4-60.73,3.24c-11.67-7.25-2-143.74-32.58-168.73S1678.17,877.59,1661.12,921.73Z" transform="translate(-211.56 -371.06)"/><path class="cls-13" d="M1719.31,1706.47h97.39c-.36-2.61-2.52-11.34-15.63-13.28-15.47-2.29-42.76-11.3-47.75-32.52s-37.81,7.31-37.81,7.31S1712.09,1702,1719.31,1706.47Z" transform="translate(-211.56 -371.06)"/><path class="cls-14" d="M1550.23,1291c16.24,33.13,54.74,79.28,68.94,115,3.36,8.46,5.36,16.33,5.39,23.31.33,80.25,87.44,238.49,87.44,238.49,8.31,5.37,43.76-5.39,43.76-5.39s-4.1-35.16-24.46-156.66c-11.21-67-30.14-166.81-44.85-242.84-3.79-19.58-7.31-37.58-10.33-53-6.53-33.34-10.82-54.85-10.82-54.85l-33.78.56-91.23,1.51S1502.43,1193.43,1550.23,1291Z" transform="translate(-211.56 -371.06)"/><path class="cls-13" d="M1550.23,1291c16.24,33.13,54.74,79.28,68.94,115,20.12-42.58,50.66-107.32,67.28-143.09-3.79-19.58-7.31-37.58-10.33-53-4.79-23.05-6.23-33.36-10.82-54.85l-125,2.07S1502.43,1193.43,1550.23,1291Z" transform="translate(-211.56 -371.06)"/><path class="cls-13" d="M1362.47,1656.08c3.8,11.11,19.52,18,22.16,31.63,1.86,9.53,6.62,15.9,11.88,18.76h42.79c.71-1.59,3.68-9.86-8.45-12-13.46-2.36-19.15-18.3-18.93-33.34,0-.36,0-.73,0-1.1.07-14.89-2.71-33.84-2.71-33.84l-28.6-5.5-4.78,6.69-.75,1S1358.67,1645,1362.47,1656.08Z" transform="translate(-211.56 -371.06)"/><path class="cls-14" d="M1566.22,1488.8c-17.15,31.13-143.6,175.66-143.6,175.66s-39.87-13.46-47-37.67c0,0,74.8-122.9,108.81-175.28,9.73-15,15.13-243.9,49.8-285.62,43.45-52.3,122.12,46.93,122.12,46.93s-24.62,80.06-32.27,105.27C1607.16,1374,1578,1467.34,1566.22,1488.8Z" transform="translate(-211.56 -371.06)"/><path class="cls-15" d="M1810.35,1066.58s24.06-6.46,35.15-18,29.4-8.06,35.85-5.28,9.9,14.34,2.07,14c-11.81-.52-16.57,15.63-35.21,18.53s-38.83,14-38.83,14Z" transform="translate(-211.56 -371.06)"/><path class="cls-15" d="M1734.34,879.56c12.55-20.82,17.86-34,17.86-34l-29.47-51.7c-17.17,48.42-56.82,59.37-56.82,59.37s46.35,50.86,83.68,53.43A85.5,85.5,0,0,0,1734.34,879.56Z" transform="translate(-211.56 -371.06)"/><path class="cls-15" d="M1762.67,848.76s-58.44-12.44-50.14-48.71,6.35-62.31,44-55.91,41.72,21.91,41.89,34.69S1778.08,851.06,1762.67,848.76Z" transform="translate(-211.56 -371.06)"/><path class="cls-13" d="M1712,802.55s19.13-45.44,72-33.17c36.22,8.4,26.72-28.35,24.59-34.42,0,0-28.13-5.29-57.23-9.93C1690.26,715.28,1708.7,793.4,1712,802.55Z" transform="translate(-211.56 -371.06)"/><path class="cls-16" d="M1761,960.46c-1.16,18.14-6.63,45.62-14,76.11-2.89,11.81-6.07,24.07-9.39,36.42-5.41,20-11,40.18-16.86,59.15l-.21.67c-.42,1.93-1.08,4-1.67,5.85-5,16.75-9.87,32.26-14.08,45.42-8.06,25.18-8.11,39.2-14.55,42-12.92,5.72-63.82-.42-94.31-13.63-25.77-11-65-44.06-64.83-60.71.23-19.3,26.14-77.41,43.3-145.27,21.19-82.88,68.18-149.07,107.36-162.72,2.93-.94,6.06,5.2,17.41,16.11,10.5,10.06,23.9,16.34,36.41,17.68l7.28,12.46C1752.89,907.85,1762.85,930.87,1761,960.46Z" transform="translate(-211.56 -371.06)"/><path class="cls-12" d="M1737.54,1073c-2.89,11.81,3.32-12.35,0,0-5.41,20-11,40.18-16.86,59.15l-.21.67c-.42,1.93-1.08,4-1.67,5.85-5,16.75-9.87,32.26-14.08,45.42-81.5-103.52-35.28-227.5-35.28-227.5Z" transform="translate(-211.56 -371.06)"/><path class="cls-16" d="M1623.39,921.73s51,187.74,97.67,199.24c23,5.68,86.27-23.62,114.49-38.28,0,0,7.09-5.76-8.58-26.19,0,0-83.54,15.69-90.24,11.53-11.67-7.25,11.85-134-18.72-159S1640.44,877.59,1623.39,921.73Z" transform="translate(-211.56 -371.06)"/><path class="cls-13" d="M1744.24,779.94s6.57-10.88,24.09-12.63c0,0-51.51,1.08-53.66,16.91s-2.71,18.33-2.71,18.33S1739.18,803.67,1744.24,779.94Z" transform="translate(-211.56 -371.06)"/></g><path class="cls-4" d="M2368.87,1418.43l65.93-5.67s-3.81-40.65,7.79-94.87c8.56-40.05,25.53-87.5,58.64-131.44,56.46-74.94,224.18-116.87,224.18-116.87v-9.7l-6-.65a23.91,23.91,0,0,1,6-2.87v-22.93a81.14,81.14,0,0,0-19.06,1.87,131.4,131.4,0,0,1,19.06-3.43v-12c-243,6.49-322.19,153.25-347,266.82C2362.48,1359.33,2368.87,1418.43,2368.87,1418.43Z" transform="translate(-211.56 -371.06)"/><path class="cls-5" d="M2080.32,1397.1l288.55,21.33c1.5-44.45,13.09-90.41,24.31-125.25a592,592,0,0,1,22.07-58.59c86.33-189.14,310.16-214.77,310.16-214.77L2477,918.07c-120,9-204.22,66.68-263.11,139C2098.53,1198.86,2080.32,1397.1,2080.32,1397.1Z" transform="translate(-211.56 -371.06)"/><path class="cls-6" d="M2080.32,1397.1l288.55,21.33,65.93-5.67s-3.81-40.65,7.79-94.87a390.21,390.21,0,0,0-49.41-24.71q-7.6-3.23-14.79-6.54c-183.73-84.8-166.61-216.89-164.52-229.52C2098.53,1198.86,2080.32,1397.1,2080.32,1397.1Z" transform="translate(-211.56 -371.06)"/><path class="cls-4" d="M2103,1419.32l257.15-5-.9-4.95c-.14-.75-13.35-76.14,17.49-161.87,18.06-50.22,47.51-94.16,87.52-130.59,50.13-45.63,117.12-79.6,199.11-101l12.63-3.29L2475.3,932.81l-.77,0c-2.17,0-53.87-.83-120.32,30.6-38.94,18.42-74.8,44.16-106.58,76.5-39.64,40.35-73,91.14-99.11,151-2.06,4.59-50.91,114.25-48.33,180.1v.08ZM2350.08,1406l-239,4.62-2.33-40c-1-26.31,6.87-65.08,22.81-112.14,12.11-35.74,24.67-63.85,24.8-64.13,25.67-58.79,58.35-108.64,97.16-148.2,31-31.61,66-56.78,103.94-74.8,41.19-19.55,77.11-26.36,97.9-28.73a66.7,66.7,0,0,1,32.18,4.29l139.1,55.36a8.32,8.32,0,0,1-.55,15.66c-67.64,21.78-124,52.94-167.77,92.88-41,37.44-71.25,82.6-89.75,134.22-16.45,45.89-20.4,88.49-20.81,116.15A309.19,309.19,0,0,0,2350.08,1406Z" transform="translate(-211.56 -371.06)"/><path class="cls-2" d="M2051.67,1418.5l1.68,19.35a7.38,7.38,0,0,0,1.63,4.05,7.59,7.59,0,0,0,3.74,2.48,6.07,6.07,0,0,0,1.4.26,6.47,6.47,0,0,0,1.32,0l2.2-.18,1.91-.18,3.5-.3,3.7-.32,3.5-.3,3.95-.34,3.51-.31,7.78-.67,3.5-.31,8.36-.72,3.5-.3,10.72-.94,3.5-.3,18.29-1.59,3.5-.3,19.54-1.7,3.5-.3,31.84-2.76,3.5-.31,4.08-.35,25.49-2.21,3.51-.3,26-2.26,3.5-.31,19.31-1.67,33.28-2.88,53.21-4.62a7.51,7.51,0,0,0,6.77-6.63c0-.15,0-.31,0-.46a8.65,8.65,0,0,0,0-1l-1.67-19.34c0-.13,0-.25,0-.37a7.53,7.53,0,0,0-5.32-6.18,7.61,7.61,0,0,0-2.75-.27l-79.86,6.93-.28,0-3.5.3-2.82.24-22.82,2-.4,0-3.5.3-22.13,1.92-2.76.23h0l-.73.06-4,.35-1.26.1-2.24.2-22.13,1.92-3.5.3-6.2.54-3.51.3-19.54,1.7-2.58.23-.92.07-2.58.23-15.71,1.36-3.5.3-.33,0-3.5.31-6.89.59-3.5.3-8.36.73-3.5.3-7.78.68-2.49.22-1,.08-2.48.22-1.47.12-3.5.31-3.38.29-.31,0-3.19.27-.31,0-1.92.17-3.5.3-1.37.12h0l-.66.06-3.51.31-3.95.34-3.5.3-7.2.63-1.91.16-2.2.19a7.85,7.85,0,0,0-1.3.23,7.6,7.6,0,0,0-4.59,3.61A7.38,7.38,0,0,0,2051.67,1418.5Z" transform="translate(-211.56 -371.06)"/><path class="cls-3" d="M2205.32,1432.17l25.49-2.21,3.51-.3,26-2.26,3.5-.31,19.31-1.67,33.28-2.88,53.21-4.62.78-.07a6.92,6.92,0,0,0,6-6.56c0-.15,0-.31,0-.46a8.65,8.65,0,0,0,0-1l-1.67-19.34c0-.13,0-.25,0-.37a7.51,7.51,0,0,0-4.83-6.22,6,6,0,0,0-2.43-.3l-.81.07-79.86,6.93-.28,0-3.5.3-2.82.24-19.31,1.68-3.51.3-.4,0-3.5.3-22.13,1.92-2.76.24h0l-.73.06-4,.35-1.26.1c0,.18-.05.35-.07.52h0C2221.05,1406.91,2216.81,1421,2205.32,1432.17Z" transform="translate(-211.56 -371.06)"/><rect class="cls-3" x="2090" y="1407.57" width="3.52" height="34.39" transform="translate(4087.26 2292.37) rotate(175.04)"/><rect class="cls-3" x="2101.85" y="1406.54" width="3.52" height="34.39" transform="translate(4110.85 2289.27) rotate(175.04)"/><rect class="cls-3" x="2116.07" y="1405.31" width="3.52" height="34.39" transform="translate(4139.09 2285.65) rotate(175.04)"/><rect class="cls-3" x="2137.86" y="1403.42" width="3.52" height="34.39" transform="matrix(-1, 0.09, -0.09, -1, 4182.43, 2279.99)"/><rect class="cls-3" x="2160.91" y="1401.42" width="3.52" height="34.39" transform="translate(4228.26 2274.01) rotate(175.04)"/><rect class="cls-3" x="2196.24" y="1398.36" width="3.52" height="34.39" transform="translate(4298.58 2264.73) rotate(175.04)"/><rect class="cls-3" x="2229.32" y="1395.49" width="3.52" height="34.39" transform="translate(4364.34 2256.2) rotate(175.04)"/><rect class="cls-3" x="2258.86" y="1392.93" width="3.52" height="34.39" transform="matrix(-1, 0.09, -0.09, -1, 4423.05, 2248.59)"/><rect class="cls-3" x="2078.71" y="1408.55" width="3.52" height="34.39" transform="translate(4064.82 2295.28) rotate(175.04)"/><rect class="cls-3" x="2071.26" y="1409.2" width="3.52" height="34.39" transform="translate(4049.98 2297.24) rotate(175.04)"/><rect class="cls-3" x="2064.06" y="1409.82" width="3.52" height="34.39" transform="translate(4035.7 2299.04) rotate(175.04)"/><path class="cls-3" d="M2057.17,1410.63l2.95,34a7.39,7.39,0,0,0,1.33,0l2.18-.19-3-34.26-2.19.19A6.94,6.94,0,0,0,2057.17,1410.63Z" transform="translate(-211.56 -371.06)"/><path class="cls-3" d="M2052.58,1414.22l2.4,27.68a7.46,7.46,0,0,0,3.74,2.48l-2.88-33.25A7.6,7.6,0,0,0,2052.58,1414.22Z" transform="translate(-211.56 -371.06)"/><path class="cls-2" d="M2074.37,1382.52l1.68,19.35a7.38,7.38,0,0,0,1.63,4.05c.12.15.24.28.37.42a7.36,7.36,0,0,0,1.79,1.39,7.2,7.2,0,0,0,1.56.67h0a7.51,7.51,0,0,0,2.73.26l2.19-.19,1.91-.17.31,0,3.19-.28.31,0,3.39-.3,3.5-.3,1.47-.13,2.48-.21,1-.09,2.49-.22,7.78-.67.45,0,3.05-.27.45,0,7.91-.68,3.5-.3,6.88-.6,3.5-.31.34,0,3.5-.3,15.71-1.36,2.58-.23.92-.08,2.58-.22,19.54-1.7,3.51-.3,6.2-.54,3.5-.3,22.13-1.92,2.11-.18h0l1.38-.13,3.95-.34h.13l3.37-.29,22.13-1.92,3.5-.3.4,0,3.51-.3,19.31-1.67,2.82-.25,3.5-.31,1-.08,81.85-7.1.49,0,22.46-2a7.52,7.52,0,0,0,6.77-6.63c0-.15,0-.3,0-.46a6.9,6.9,0,0,0,0-1l-1.67-19.35c0-.12,0-.24,0-.36s0-.23-.05-.35a7.53,7.53,0,0,0-8-6.1l-5.24.45h0l-.5,0-24.95,2.16-66.45,5.77-8.62.75-3.5.3-2.81.24-2.12.18-3.5.31-17.61,1.53-3.5.3-4.91.43h0l-.29,0-3.21.28-24.9,2.16-4.68.4-3.51.31-31.83,2.76-3.5.3-19.54,1.7-3.5.3-18.29,1.59-3.51.3-2.28.2-3.51.31-4.91.43-3.5.3-8.37.72-2.85.25-.65.06-2.86.24-3.95.35-1,.08-3.5.31-4,.34-3.5.3-.68.06-2.2.19a5.66,5.66,0,0,0-.81.12l-.49.11a6.71,6.71,0,0,0-1.29.49h0a7.57,7.57,0,0,0-3.26,3.1A7.38,7.38,0,0,0,2074.37,1382.52Z" transform="translate(-211.56 -371.06)"/><path class="cls-3" d="M2228,1396.19l3.37-.29,22.13-1.92,3.5-.3.4,0,3.51-.3,19.31-1.67,2.82-.25,3.5-.31,1-.08,81.85-7.1.49,0,22.46-2,.78-.07a6.92,6.92,0,0,0,6-6.56c0-.15,0-.3,0-.46a6.9,6.9,0,0,0,0-1l-1.67-19.35c0-.12,0-.24,0-.36s0-.23-.05-.35c-.66-3.74-3.77-6.47-7.21-6.17l-.81.07-5.24.45h0l-.5,0-24.95,2.16-66.44,5.77-8.63.75-3.5.3-2.81.24-2.12.18-3.5.31-17.61,1.53-3.5.3-4.91.43h0l-.29,0c0,.17,0,.33-.07.5h0c-1.49,10.07-5.61,23.91-16.68,35h0C2228.39,1395.84,2228.21,1396,2228,1396.19Z" transform="translate(-211.56 -371.06)"/><rect class="cls-3" x="2112.7" y="1371.59" width="3.52" height="34.39" transform="translate(4129.53 2218.46) rotate(175.04)"/><rect class="cls-3" x="2124.55" y="1370.56" width="3.52" height="34.39" transform="translate(4153.05 2215.5) rotate(175.04)"/><rect class="cls-3" x="2138.77" y="1369.33" width="3.52" height="34.39" transform="translate(4181.35 2211.75) rotate(175.04)"/><rect class="cls-3" x="2160.57" y="1367.44" width="3.52" height="34.39" transform="matrix(-1, 0.09, -0.09, -1, 4224.69, 2206.09)"/><rect class="cls-3" x="2183.61" y="1365.44" width="3.52" height="34.39" transform="translate(4270.52 2200.12) rotate(175.04)"/><rect class="cls-3" x="2218.94" y="1362.38" width="3.52" height="34.39" transform="translate(4340.8 2190.92) rotate(175.04)"/><rect class="cls-3" x="2252.02" y="1359.51" width="3.52" height="34.39" transform="translate(4406.55 2182.4) rotate(175.04)"/><rect class="cls-3" x="2281.56" y="1356.95" width="3.52" height="34.39" transform="translate(4465.29 2174.74) rotate(175.04)"/><rect class="cls-3" x="2101.41" y="1372.57" width="3.52" height="34.39" transform="translate(4107.06 2221.44) rotate(175.04)"/><rect class="cls-3" x="2093.96" y="1373.22" width="3.52" height="34.39" transform="translate(4092.24 2223.37) rotate(175.04)"/><rect class="cls-3" x="2086.76" y="1373.84" width="3.52" height="34.39" transform="translate(4077.88 2225.31) rotate(175.04)"/><path class="cls-3" d="M2079.87,1374.65l3,34a7.39,7.39,0,0,0,1.33,0l2.19-.19-3-34.26-2.18.19A7,7,0,0,0,2079.87,1374.65Z" transform="translate(-211.56 -371.06)"/><path class="cls-3" d="M2075.28,1378.24l2.4,27.68a7.51,7.51,0,0,0,3.74,2.48l-2.88-33.25A7.6,7.6,0,0,0,2075.28,1378.24Z" transform="translate(-211.56 -371.06)"/><path class="cls-2" d="M2063,1349.48l1.67,19.34a7.47,7.47,0,0,0,1.64,4.06,7.55,7.55,0,0,0,3.74,2.49,7.48,7.48,0,0,0,2.72.26l2.19-.18,1.91-.18,1.67-.14h0l1.33-.11.49,0,3-.26.69-.06,1.22-.11,2.28-.19,1.22-.11,2.73-.23,1-.09,2.53-.22,1-.08,3.95-.35,2.87-.24.64-.06,2.86-.25,4.92-.42,3.44-.3h.06l3.44-.29,4.91-.43,3.5-.31,2.3-.2,3.51-.3,4.91-.43,3.51-.3,9.87-.86,3.5-.3,4.92-.43,3.5-.3,11.12-1,3.5-.3,4.92-.42,3.51-.31,23.4-2,3.51-.32,4.08-.35.83-.07,3.5-.3,21.16-1.84,3.1-.27.41,0,4.91-.43,3.5-.3,17.62-1.53,3.5-.31,2.11-.18,2.81-.24h0l3.5-.31,9.35-.81,88-7.63a7.44,7.44,0,0,0,2.62-.72,7.53,7.53,0,0,0,4.21-6.37,8.65,8.65,0,0,0,0-1l-1.68-19.34c0-.25,0-.49-.09-.73a7.49,7.49,0,0,0-7.64-6.11h0l-.32,0-103.67,9-2.1.19-3.51.3-26,2.26-3.51.3-5.21.45-24.36,2.12-3.5.3-31.83,2.77-3.5.3-19.54,1.69-3.5.31-18.29,1.58-3.51.31-10.72.93-3.5.31-8.35.72-3.5.3-7.79.68-3.5.3-3.95.34-3.5.31-3.7.32-3.51.3-1.91.17-2.19.19a7.85,7.85,0,0,0-1.3.23,6.86,6.86,0,0,0-1.33.5,7.57,7.57,0,0,0-3.26,3.1A7.38,7.38,0,0,0,2063,1349.48Z" transform="translate(-211.56 -371.06)"/><path class="cls-3" d="M2216.67,1363.15l.83-.07,3.5-.3,21.16-1.84,3.1-.27.41,0,4.91-.43,3.5-.3,17.62-1.53,3.5-.3,2.11-.19,2.81-.24,3.5-.3,9.36-.81,88.8-7.7a5.92,5.92,0,0,0,2.32-.7h0a7.42,7.42,0,0,0,3.7-6.32,8.65,8.65,0,0,0,0-1l-1.68-19.34c0-.25,0-.49-.09-.73a7.45,7.45,0,0,0-4.85-5.89,6,6,0,0,0-2.35-.26l-.44,0h0l-104,9-2.1.19-3.51.3-26,2.26-3.51.3-5.21.45c-1.4,10.13-5.48,24.26-16.75,35.48C2217,1362.8,2216.86,1363,2216.67,1363.15Z" transform="translate(-211.56 -371.06)"/><rect class="cls-3" x="2101.35" y="1338.55" width="3.52" height="34.39" transform="translate(4103.95 2153.61) rotate(175.04)"/><rect class="cls-3" x="2113.2" y="1337.53" width="3.52" height="34.39" transform="translate(4127.54 2150.51) rotate(175.04)"/><rect class="cls-3" x="2127.42" y="1336.29" width="3.52" height="34.39" transform="translate(4155.81 2146.82) rotate(175.04)"/><rect class="cls-3" x="2149.21" y="1334.4" width="3.52" height="34.39" transform="translate(4199.12 2141.23) rotate(175.04)"/><rect class="cls-3" x="2172.26" y="1332.4" width="3.52" height="34.39" transform="matrix(-1, 0.09, -0.09, -1, 4244.95, 2135.25)"/><rect class="cls-3" x="2207.59" y="1329.34" width="3.52" height="34.39" transform="translate(4315.27 2125.96) rotate(175.04)"/><rect class="cls-3" x="2240.67" y="1326.47" width="3.52" height="34.39" transform="translate(4381.03 2117.44) rotate(175.04)"/><rect class="cls-3" x="2270.21" y="1323.91" width="3.52" height="34.39" transform="translate(4439.78 2109.76) rotate(175.04)"/><rect class="cls-3" x="2090.06" y="1339.53" width="3.52" height="34.39" transform="translate(4081.48 2156.58) rotate(175.04)"/><rect class="cls-3" x="2082.6" y="1340.18" width="3.52" height="34.39" transform="translate(4066.65 2158.51) rotate(175.04)"/><rect class="cls-3" x="2075.41" y="1340.8" width="3.52" height="34.39" transform="translate(4052.39 2160.28) rotate(175.04)"/><path class="cls-3" d="M2068.52,1341.61l2.95,34a8.43,8.43,0,0,0,1.33,0l2.18-.19-3-34.26-2.19.19A6.21,6.21,0,0,0,2068.52,1341.61Z" transform="translate(-211.56 -371.06)"/><path class="cls-3" d="M2063.93,1345.2l2.4,27.68a7.55,7.55,0,0,0,3.74,2.49l-2.88-33.26A7.6,7.6,0,0,0,2063.93,1345.2Z" transform="translate(-211.56 -371.06)"/><path class="cls-17" d="M2281.62,1365.06c0,.12,0,.24,0,.37l1.76,19.34a8.31,8.31,0,0,0,.15,1,7.72,7.72,0,0,0,2.93,4.62,2.61,2.61,0,0,0,.3.2,5.77,5.77,0,0,0,.76.44,6.15,6.15,0,0,0,3.18.58l.78-.07,22.45-2a7.52,7.52,0,0,0-3.65,7,2.3,2.3,0,0,0,0,.37l1.76,19.34a7.86,7.86,0,0,0,.15,1,7.5,7.5,0,0,0,4.2,5.36l53.21-4.62.78-.07a6.92,6.92,0,0,0,6-6.56c0-.15,0-.31,0-.46a8.65,8.65,0,0,0,0-1l-1.67-19.34c0-.13,0-.25,0-.37a7.51,7.51,0,0,0-4.83-6.22l22.46-2,.78-.07a6.92,6.92,0,0,0,6-6.56c0-.15,0-.3,0-.46a6.9,6.9,0,0,0,0-1l-1.67-19.35c0-.12,0-.24,0-.36s0-.23-.05-.35c-.66-3.74-3.77-6.47-7.21-6.17l-.81.07-5.24.45a7.42,7.42,0,0,0,3.7-6.32,8.65,8.65,0,0,0,0-1l-1.68-19.34c0-.25,0-.49-.09-.73a7.45,7.45,0,0,0-4.85-5.89l-.5.05-86.88,7.88-.32,0h0l-.44,0c-3.44.31-6,3.53-6,7.33q0,.36,0,.72l1.75,19.35a7.86,7.86,0,0,0,.16,1,7.65,7.65,0,0,0,3.28,4.87h0a4.05,4.05,0,0,0,.76.42h0a5.8,5.8,0,0,0,.69.27l-5.24.48-.8.08a6.16,6.16,0,0,0-3.84,1.85A7.73,7.73,0,0,0,2281.62,1365.06Z" transform="translate(-211.56 -371.06)"/><path class="cls-4" d="M2329,1056.14c42.37,0,65.83,25.34,65.83,67.7s-43.87,68-86.23,68-67.18-25.59-67.18-68S2286.6,1056.14,2329,1056.14Z" transform="translate(-211.56 -371.06)"/><circle class="cls-14" cx="1985.61" cy="1655.71" r="51.11" transform="translate(-178.34 2979.4) rotate(-80.78)"/><path class="cls-16" d="M1962.1,1655.71a23.51,23.51,0,1,1,23.51,23.51A23.5,23.5,0,0,1,1962.1,1655.71Z" transform="translate(-211.56 -371.06)"/><circle class="cls-14" cx="2393.18" cy="1655.71" r="51.11" transform="translate(163.95 3381.71) rotate(-80.78)"/><circle class="cls-16" cx="2393.18" cy="1655.71" r="23.51" transform="translate(-663 670.8) rotate(-22.5)"/><path class="cls-18" d="M1883.82,1060.6a7.68,7.68,0,0,1,10.84-.4l65.41,60.7a7.67,7.67,0,0,1,2.09,3.3l8.31,26.11,549,26a7.66,7.66,0,0,1,7.29,8l-11.24,231a7.67,7.67,0,0,1-7.1,7.27l-450.76,32.71-.56,0a7.65,7.65,0,0,1-7.3-5.34l-92.23-289.82-.12-.35-9.25-29.09-63.94-59.33A7.67,7.67,0,0,1,1883.82,1060.6Zm153.41,299.47,50.41-1.93-21.09-85.08-57.17-.49Zm64-2.45,56.75-2.17-19.18-81.78-58.5-.5Zm74.56,73.79L2161,1368.63l-56.57,2.16,16,64.63Zm65.54-4.76L2230,1366l-55.47,2.13,14.62,62.32Zm72.24-5.24-8.82-58.29-61.27,2.35,11.19,60.21Zm60.26-4.37-4.25-56.4-51.47,2,8.75,57.83Zm73.1-5.31-3.5-53.92-60.57,2.32,4.22,55.94Zm60-134.94-55.46-.47,4.4,67.71,47.88-1.83Zm-68.78-.59-61.63-.52,5.37,71.19,60.7-2.33Zm-68.5-91.62,5.86,77.81,61.77.52-4.89-75.35Zm-79-3.75,12.24,80.94,59.3.5-5.91-78.32Zm-82.17-3.89,15.64,84.16,65.32.56-12.33-81.47Zm-79.57-3.77,20.47,87.3,61.2.52-15.74-84.7ZM2291.39,1275l-64.86-.55,14.47,77.85,61.72-2.36Zm24.69,74.43,52.47-2-5.42-71.81-58.29-.49ZM2213,1274.3l-60.55-.52,19,81.15,56.11-2.15Zm-77.34-14-20.6-87.84-60.44-2.86,22.36,90.21Zm310-72.16,4.86,74.83,57,.48,3.51-72.21Zm57.35,167.33-46.37,1.78,3.47,53.47,40.36-2.93Zm-440.51,84.1,44.5-3.23-16.13-65.08-49.5,1.9Zm-57.4-180.37,58.11.49L2040.76,1169l-65.33-3.1Z" transform="translate(-211.56 -371.06)"/><path class="cls-16" d="M1911.65,1095.63a9.2,9.2,0,0,0,6.09-16.1L1884.28,1050a9.2,9.2,0,0,0-12.17,13.8l33.46,29.51A9.14,9.14,0,0,0,1911.65,1095.63Z" transform="translate(-211.56 -371.06)"/><path class="cls-16" d="M2507.84,1424.2a9.2,9.2,0,0,0,9.18-8.76l11.24-231a9.2,9.2,0,0,0-18.37-.89l-11.25,231a9.2,9.2,0,0,0,8.74,9.63Z" transform="translate(-211.56 -371.06)"/><path class="cls-18" d="M1984.07,1652.17l10.28-61.9a7.64,7.64,0,0,1-7.29-7.64v-83.82a7.65,7.65,0,0,1,2.8-5.93l62.35-51.1a7.66,7.66,0,1,1,9.72,11.85l-59.54,48.81v72.66l439.76,7.94,13.64-38.4a7.67,7.67,0,0,1,14.45,5.13l-13,36.6,58.49,22.85a7.67,7.67,0,0,1-5.58,14.28L2446,1598.44l-8.12-.14-42.33,60.77c-2.13,3.06-6.11,1-5.93-3.08l2.52-58.52-351.48-6.35-52,63.63C1986.86,1657,1983.58,1655.14,1984.07,1652.17Z" transform="translate(-211.56 -371.06)"/><path class="cls-4" d="M671.92,1487.5,606,1481.83s3.81-40.64-7.79-94.86c-8.55-40-25.52-87.5-58.63-131.45-56.47-74.94-224.19-116.86-224.19-116.86V1129l6-.65a23.91,23.91,0,0,0-6-2.87v-22.93a81,81,0,0,1,19.06,1.86,130,130,0,0,0-19.06-3.42v-12.06c243,6.5,322.2,153.25,347,266.83C678.31,1428.41,671.92,1487.5,671.92,1487.5Z" transform="translate(-211.56 -371.06)"/><path class="cls-5" d="M960.48,1466.17,671.92,1487.5c-1.49-44.44-13.09-90.4-24.31-125.25a592.36,592.36,0,0,0-22.07-58.58c-86.32-189.14-310.16-214.78-310.16-214.78L563.82,987.15c120,9,204.21,66.67,263.1,139.05C942.26,1267.94,960.48,1466.17,960.48,1466.17Z" transform="translate(-211.56 -371.06)"/><path class="cls-6" d="M960.48,1466.17,671.92,1487.5,606,1481.83s3.81-40.64-7.79-94.86a391.49,391.49,0,0,1,49.41-24.72q7.6-3.21,14.8-6.53c183.72-84.8,166.61-216.89,164.51-229.52C942.26,1267.94,960.48,1466.17,960.48,1466.17Z" transform="translate(-211.56 -371.06)"/><path class="cls-4" d="M937.78,1488.39l-257.15-5,.91-5c.13-.75,13.34-76.15-17.49-161.87-18.06-50.22-47.51-94.16-87.52-130.59-50.13-45.64-117.12-79.6-199.12-101l-12.63-3.29,200.71-79.88h.78c2.17,0,53.86-.83,120.31,30.59,38.95,18.42,74.81,44.16,106.58,76.51,39.64,40.35,73,91.14,99.11,151,2.06,4.6,50.91,114.26,48.33,180.11v.08Zm-247.07-13.33,239,4.62,2.33-40c1-26.3-6.86-65.07-22.8-112.13-12.11-35.75-24.68-63.85-24.8-64.13-25.68-58.79-58.36-108.64-97.16-148.2-31-31.62-66-56.78-103.94-74.8-41.2-19.55-77.12-26.36-97.91-28.73a66.65,66.65,0,0,0-32.17,4.29l-139.11,55.36a8.32,8.32,0,0,0,.55,15.65c67.64,21.78,124,53,167.77,92.89,41.06,37.44,71.26,82.59,89.76,134.22,16.44,45.89,20.39,88.49,20.81,116.15A308.85,308.85,0,0,1,690.71,1475.06Z" transform="translate(-211.56 -371.06)"/><path class="cls-4" d="M711.83,1125.22c-42.36,0-65.83,25.34-65.83,67.7s43.87,68,86.23,68,67.19-25.6,67.19-68S754.2,1125.22,711.83,1125.22Z" transform="translate(-211.56 -371.06)"/><circle class="cls-19" cx="612.44" cy="1061.77" r="274.96"/><circle class="cls-2" cx="588.45" cy="1061.77" r="274.96"/><path class="cls-3" d="M800,1686.6a249.74,249.74,0,1,1,97.52-19.69A248.88,248.88,0,0,1,800,1686.6Zm0-486.09a235.58,235.58,0,1,0,166.58,69A234,234,0,0,0,800,1200.51Z" transform="translate(-211.56 -371.06)"/><path class="cls-3" d="M834.5,1508.79a41.4,41.4,0,0,0-.59-14.54,30.25,30.25,0,0,0-6.15-12.08,57.12,57.12,0,0,0-12.3-10.86,152.44,152.44,0,0,0-19.06-10.67,395.15,395.15,0,0,1-35.2-19.34,125,125,0,0,1-26.32-21.42,73.51,73.51,0,0,1-15.54-26.11q-4.92-14.48-2.68-33.38a75.31,75.31,0,0,1,9.37-29.22,69.55,69.55,0,0,1,19.41-21.57,87,87,0,0,1,27.79-13.24,116.31,116.31,0,0,1,34.71-4l4.9-41.29,33.23,3.94-5,41.87a104.17,104.17,0,0,1,31.28,13.3,78.62,78.62,0,0,1,35,50.24q3.66,16.18,1.37,35.48l-60-7.12q2.75-23.16-6.17-35.86t-26.17-14.75a45,45,0,0,0-16.4.7,30.34,30.34,0,0,0-12,5.82,28.34,28.34,0,0,0-7.71,9.94,41.82,41.82,0,0,0-3.66,13.07,38.6,38.6,0,0,0,.54,13.17,28.35,28.35,0,0,0,5.9,11.57,57.33,57.33,0,0,0,12.4,10.86,193.87,193.87,0,0,0,19.81,11.45q19.26,9.91,34.84,19.78a126.38,126.38,0,0,1,26.18,21.6,74.43,74.43,0,0,1,15.54,26.21q4.9,14.48,2.69,33.19a75.71,75.71,0,0,1-9.53,29.78,68.91,68.91,0,0,1-19.5,21.37,84.11,84.11,0,0,1-27.94,12.73,125.19,125.19,0,0,1-34.88,3.69l-4.55,38.39-33-3.92,4.53-38.2a140.29,140.29,0,0,1-32.44-11.48,88.83,88.83,0,0,1-26.59-20.08A79.65,79.65,0,0,1,694,1518q-5.52-17.49-2.77-40.64l60,7.13q-1.62,13.69,1.13,23.31a38.61,38.61,0,0,0,8.55,15.89,37.42,37.42,0,0,0,13.72,9.46,64.45,64.45,0,0,0,16.46,4.2,53.65,53.65,0,0,0,17.44-.48,35.52,35.52,0,0,0,13.18-5.48,28.44,28.44,0,0,0,8.73-9.63A34.79,34.79,0,0,0,834.5,1508.79Z" transform="translate(-211.56 -371.06)"/><path class="cls-20" d="M1717.45,823.78s3.57,29.84,24.51,42.53l10.24-20.55S1725.74,836.57,1717.45,823.78Z" transform="translate(-211.56 -371.06)"/><path class="cls-21" d="M2609.28,1710.4H250.72a3.59,3.59,0,0,1-3.58-3.58h0a3.59,3.59,0,0,1,3.58-3.59H2609.28a3.59,3.59,0,0,1,3.58,3.59h0A3.59,3.59,0,0,1,2609.28,1710.4Z" transform="translate(-211.56 -371.06)"/></svg>