<svg id="Illustration" xmlns="http://www.w3.org/2000/svg" xmlns:xlink="http://www.w3.org/1999/xlink" viewBox="0 0 2665.08 1887.4"><defs><style>.cls-1{fill:#d5f0ff;}.cls-2{fill:#8dafdc;}.cls-2,.cls-26,.cls-27,.cls-3,.cls-33,.cls-34,.cls-35,.cls-36,.cls-37,.cls-38,.cls-39,.cls-4,.cls-40,.cls-41,.cls-5,.cls-6,.cls-7,.cls-8,.cls-9{fill-rule:evenodd;}.cls-11,.cls-3{fill:#fff;}.cls-4{fill:#16888c;}.cls-5{fill:url(#linear-gradient);}.cls-6{fill:url(#linear-gradient-2);}.cls-7{fill:url(#linear-gradient-3);}.cls-8{fill:url(#linear-gradient-4);}.cls-9{fill:url(#linear-gradient-5);}.cls-10,.cls-26{fill:#0643a3;}.cls-12{fill:#84b2fe;}.cls-13{fill:url(#linear-gradient-6);}.cls-14{fill:url(#linear-gradient-7);}.cls-15{fill:url(#linear-gradient-8);}.cls-16{fill:url(#linear-gradient-9);}.cls-17{fill:url(#linear-gradient-10);}.cls-18{fill:url(#linear-gradient-11);}.cls-19{fill:url(#linear-gradient-12);}.cls-20{fill:url(#linear-gradient-13);}.cls-21{fill:url(#linear-gradient-14);}.cls-22{fill:url(#linear-gradient-15);}.cls-23{fill:url(#linear-gradient-16);}.cls-24{fill:url(#linear-gradient-17);}.cls-25{fill:#dfe6ff;}.cls-27{fill:url(#linear-gradient-18);}.cls-28{fill:#060352;}.cls-29{fill:#faec16;}.cls-30{fill:#f19d21;}.cls-31{fill:#f9ce0d;}.cls-32{fill:#e54e25;}.cls-33{fill:#4b76ba;}.cls-34{fill:#e9708a;}.cls-35{fill:#fbb445;}.cls-36{fill:#2c7efe;}.cls-37{fill:#f69768;}.cls-38{fill:#1b174f;}.cls-39{fill:#ee4f88;}.cls-40{fill:#f8aa81;}.cls-41{fill:#0ebaa0;}</style><linearGradient id="linear-gradient" x1="718.87" y1="1291.1" x2="852.48" y2="1291.1" gradientUnits="userSpaceOnUse"><stop offset="0" stop-color="#dead73"/><stop offset="1" stop-color="#a97c50"/></linearGradient><linearGradient id="linear-gradient-2" x1="788.37" y1="926.54" x2="1188.64" y2="926.54" xlink:href="#linear-gradient"/><linearGradient id="linear-gradient-3" x1="457.02" y1="1189.54" x2="766.81" y2="1189.54" xlink:href="#linear-gradient"/><linearGradient id="linear-gradient-4" x1="758.72" y1="717.84" x2="1095.84" y2="717.84" xlink:href="#linear-gradient"/><linearGradient id="linear-gradient-5" x1="116.51" y1="684.03" x2="1487.91" y2="684.03" gradientUnits="userSpaceOnUse"><stop offset="0" stop-color="#16888c"/><stop offset="1" stop-color="#0ebaa0"/></linearGradient><linearGradient id="linear-gradient-6" x1="2266.03" y1="1492.48" x2="2325.9" y2="1492.48" gradientUnits="userSpaceOnUse"><stop offset="0" stop-color="#c7e9f4"/><stop offset="1" stop-color="#7fe3ff"/></linearGradient><linearGradient id="linear-gradient-7" x1="2190.39" y1="1492.48" x2="2250.26" y2="1492.48" xlink:href="#linear-gradient-6"/><linearGradient id="linear-gradient-8" x1="2266.03" y1="1566.53" x2="2325.9" y2="1566.53" xlink:href="#linear-gradient-6"/><linearGradient id="linear-gradient-9" x1="2190.39" y1="1566.53" x2="2250.26" y2="1566.53" xlink:href="#linear-gradient-6"/><linearGradient id="linear-gradient-10" x1="1923.77" y1="1492.48" x2="1983.64" y2="1492.48" xlink:href="#linear-gradient-6"/><linearGradient id="linear-gradient-11" x1="1848.13" y1="1492.48" x2="1908" y2="1492.48" xlink:href="#linear-gradient-6"/><linearGradient id="linear-gradient-12" x1="1923.77" y1="1566.53" x2="1983.64" y2="1566.53" xlink:href="#linear-gradient-6"/><linearGradient id="linear-gradient-13" x1="1848.13" y1="1566.53" x2="1908" y2="1566.53" xlink:href="#linear-gradient-6"/><linearGradient id="linear-gradient-14" x1="1336.59" y1="910.78" x2="1386.87" y2="910.78" xlink:href="#linear-gradient-6"/><linearGradient id="linear-gradient-15" x1="1273.06" y1="910.78" x2="1323.35" y2="910.78" xlink:href="#linear-gradient-6"/><linearGradient id="linear-gradient-16" x1="1336.59" y1="972.98" x2="1386.87" y2="972.98" xlink:href="#linear-gradient-6"/><linearGradient id="linear-gradient-17" x1="1273.06" y1="972.98" x2="1323.35" y2="972.98" xlink:href="#linear-gradient-6"/><linearGradient id="linear-gradient-18" x1="1319.54" y1="1538.96" x2="1515.06" y2="1538.96" xlink:href="#linear-gradient-6"/></defs><path class="cls-1" d="M1259.31,58.51c346.09-18.38,662.78,79,874.92,245.51,336.91,114.17,575.68,350,596.8,633.75,31.35,421.58-429.66,789.12-1029.73,820.91-164.52,8.74-322.34-8.75-465.47-47.29-7.61.55-15.22,1-23,1.44C612.79,1744.61,101,1428.68,69.52,1007.21,51.68,766.46,194.42,543.32,431.75,390.28c186.16-185.37,484-313.61,827.56-331.77Z" transform="translate(-67.46 -56.3)"/><path class="cls-2" d="M440.13,162.59a171.71,171.71,0,1,1,53.66,301.06,75.26,75.26,0,0,1-55.12-7.07,108.2,108.2,0,0,1-128.53-7.71A148.48,148.48,0,1,1,194.85,187.11a128.67,128.67,0,0,1,245.28-24.52Z" transform="translate(-67.46 -56.3)"/><path class="cls-3" d="M462.91,162.59a171.71,171.71,0,1,1,53.67,301.06,75.29,75.29,0,0,1-55.13-7.07,108.18,108.18,0,0,1-128.52-7.71,148.48,148.48,0,1,1-115.3-261.76,128.67,128.67,0,0,1,245.28-24.52Z" transform="translate(-67.46 -56.3)"/><path class="cls-2" d="M2016.54,233.54a289.15,289.15,0,0,0-175.52-59c-160.45,0-290.62,130.06-290.62,290.51s130.17,290.5,290.62,290.5A290,290,0,0,0,1925.83,743a126.85,126.85,0,0,0,93.34-11.91,183.07,183.07,0,0,0,217.38-13.12,250.23,250.23,0,0,0,159.35,56.94c138.7,0,251.27-112.46,251.27-251.15,0-126.68-93.67-231.38-215.53-248.76C2412.3,174.63,2324,98.78,2217.86,98.78c-90.82,0-168.64,55.74-201.32,134.76Z" transform="translate(-67.46 -56.3)"/><path class="cls-3" d="M1985.47,233.54a289.15,289.15,0,0,0-175.52-59c-160.45,0-290.62,130.06-290.62,290.51S1649.5,755.53,1810,755.53A290,290,0,0,0,1894.76,743a126.83,126.83,0,0,0,93.33-11.91,183.09,183.09,0,0,0,217.39-13.12,250.23,250.23,0,0,0,159.35,56.94c138.69,0,251.27-112.46,251.27-251.15,0-126.68-93.67-231.38-215.53-248.76-19.34-100.33-107.65-176.18-213.78-176.18-90.82,0-168.64,55.74-201.32,134.76Z" transform="translate(-67.46 -56.3)"/><path class="cls-4" d="M498.31,1912c-41.57-55.39-127-162-129.16-157.59,7.83,6.73,97.92,119.42,122.17,171.29Z" transform="translate(-67.46 -56.3)"/><path class="cls-4" d="M355.09,1738.82c4.8,1.84,11,.8,15.13,5.22a16.65,16.65,0,0,1,4.29,15.42,16.66,16.66,0,0,1-15.14-5.21c-4.15-4.42-2.8-10.1-4.28-15.43Z" transform="translate(-67.46 -56.3)"/><path class="cls-4" d="M364.11,1776.32c3.15-2,5.21-6.09,9.61-6.6a6.58,6.58,0,1,1,1.27,10.77c-4.38.51-7.13-2.73-10.88-4.17Z" transform="translate(-67.46 -56.3)"/><path class="cls-4" d="M383.83,1750.55c.91,2.58,3.45,4.68,3.11,7.85a8.78,8.78,0,0,1-4.72,7,8.76,8.76,0,0,1-3.09-7.83c.34-3.2,3.07-4.59,4.7-7Z" transform="translate(-67.46 -56.3)"/><path class="cls-4" d="M404.79,1760.67c-2.67,4-8,6.58-8.73,12.23a15.6,15.6,0,0,0,5.15,14.09,15.64,15.64,0,0,0,8.71-12.21c.77-5.65-3.36-9.23-5.13-14.11Z" transform="translate(-67.46 -56.3)"/><path class="cls-4" d="M375.77,1803.79c4.53-2.89,7.49-8.71,13.78-9.47a17.42,17.42,0,0,1,15.63,6,17.43,17.43,0,0,1-13.78,9.48c-6.31.74-10.24-3.92-15.63-6Z" transform="translate(-67.46 -56.3)"/><path class="cls-4" d="M430.68,1775.34c-4.26,5.41-12.1,8.45-13.84,16.41a22.28,22.28,0,0,0,5.65,20.73,22.35,22.35,0,0,0,13.86-16.43c1.77-8-3.69-13.56-5.67-20.71Z" transform="translate(-67.46 -56.3)"/><path class="cls-4" d="M381.32,1838.33c7.38-4.71,12.22-14.25,22.51-15.46s19.9,2.78,25.52,9.77c-3.85,8.1-12.22,14.25-22.51,15.48s-16.73-6.39-25.52-9.79Z" transform="translate(-67.46 -56.3)"/><path class="cls-4" d="M468.61,1792.93c-7.22,7.68-19.53,11.26-23.26,23.13s-1.13,24.07,5.84,32.27c10.42-2.74,19.53-11.25,23.27-23.13s-3.82-21.12-5.85-32.27Z" transform="translate(-67.46 -56.3)"/><path class="cls-4" d="M390.46,1878.27c11.46-5.66,19.94-18.66,35-18.8s28.29,7.22,35.34,18.2c-6.85,11.1-19.94,18.66-35,18.8s-23.15-11.91-35.36-18.2Z" transform="translate(-67.46 -56.3)"/><path class="cls-4" d="M512.88,1913.91c-6.16-93.54-24.25-277.69-29.93-274.21,3.9,13.4,22.73,207.84,11.91,284.59Z" transform="translate(-67.46 -56.3)"/><path class="cls-4" d="M478.55,1611.61c4.09,5.62,11.85,9,13.31,17.08a22.57,22.57,0,0,1-6.54,20.66,22.55,22.55,0,0,1-13.31-17.1c-1.45-8.09,4.27-13.51,6.54-20.64Z" transform="translate(-67.46 -56.3)"/><path class="cls-4" d="M461.07,1660.79c5.07,0,10.41-3,15.78-.4a16.49,16.49,0,0,1,9.26,12.78,16.37,16.37,0,0,1-15.78.39c-5.37-2.67-6.07-8.35-9.26-12.77Z" transform="translate(-67.46 -56.3)"/><path class="cls-4" d="M502.46,1646.16c-.84,3.58.46,7.85-2.27,11.2a12,12,0,0,1-10.52,4.46,11.86,11.86,0,0,1,2.29-11.2c2.74-3.36,6.87-2.92,10.5-4.46Z" transform="translate(-67.46 -56.3)"/><path class="cls-4" d="M518.76,1673.12c-6,2.59-13.88,1.59-18.91,7.42a21.06,21.06,0,0,0-4.62,19.78,21.1,21.1,0,0,0,18.91-7.41c5.05-5.85,3-13,4.62-19.79Z" transform="translate(-67.46 -56.3)"/><path class="cls-4" d="M454,1700.58c7.26.06,14.93-4.38,22.63-.55a23.54,23.54,0,0,1,13.3,18.32,23.48,23.48,0,0,1-22.64.55c-7.71-3.81-8.72-12-13.29-18.32Z" transform="translate(-67.46 -56.3)"/><path class="cls-4" d="M537.29,1708.9c-8.85,3-20,.64-27.85,8.37s-10.94,18.36-8.91,27.69c9.29,2.2,20-.65,27.86-8.37s5.83-18.12,8.9-27.69Z" transform="translate(-67.46 -56.3)"/><path class="cls-4" d="M434.72,1743.83c11.87.11,24.39-7.12,37-.88s20.49,17.86,21.72,30c-10.35,6.34-24.41,7.12-37,.9s-14.23-19.62-21.71-30Z" transform="translate(-67.46 -56.3)"/><path class="cls-4" d="M567.26,1756.89c-13.86,3.36-30.45-1.68-43.47,9s-19.07,26.48-17.22,40.94c13.83,4.58,30.47,1.67,43.47-9s11.3-26.78,17.22-40.91Z" transform="translate(-67.46 -56.3)"/><path class="cls-4" d="M415.56,1795.9c17.18,2,36.42-6.43,53.63,4.59s26.77,29.09,26.63,46.75c-16,7.53-36.42,6.43-53.63-4.59s-17.45-30.6-26.63-46.75Z" transform="translate(-67.46 -56.3)"/><path class="cls-4" d="M526.54,1924.73c25.44-79,70.66-236.31,64.85-235.3-1.16,12.3-49.12,178.35-83.08,238Z" transform="translate(-67.46 -56.3)"/><path class="cls-4" d="M596.94,1664.89c1.52,6,6.81,11.27,5.36,18.4a20,20,0,0,1-12.1,14.86,19.9,19.9,0,0,1-5.37-18.41c1.44-7.13,7.92-9.72,12.11-14.85Z" transform="translate(-67.46 -56.3)"/><path class="cls-4" d="M566.5,1699.63c4.17,1.7,9.56.9,13.1,4.83a14.49,14.49,0,0,1,3.46,13.53,14.52,14.52,0,0,1-13.09-4.82c-3.56-4-2.28-8.86-3.47-13.54Z" transform="translate(-67.46 -56.3)"/><path class="cls-4" d="M605.33,1701.11c-1.87,2.67-2.18,6.61-5.53,8.46a5.71,5.71,0,1,1-4.57-8.21c3.35-1.87,6.62-.16,10.1-.25Z" transform="translate(-67.46 -56.3)"/><path class="cls-4" d="M609.93,1728.6c-5.76.16-11.93-3.22-18-.07a18.67,18.67,0,0,0-10.25,14.76,18.66,18.66,0,0,0,18,.08c6.06-3.15,6.72-9.67,10.26-14.77Z" transform="translate(-67.46 -56.3)"/><path class="cls-4" d="M547.68,1730c6,2.43,13.71,1.29,18.81,6.94a20.82,20.82,0,0,1,4.94,19.42,20.83,20.83,0,0,1-18.8-6.93c-5.08-5.65-3.24-12.72-5-19.43Z" transform="translate(-67.46 -56.3)"/><path class="cls-4" d="M613.5,1764.07c-8.25-.43-16.64-6-25.64-2.2s-15,11.53-16.35,19.87c6.9,4.84,16.63,6,25.63,2.2s10.72-13,16.36-19.87Z" transform="translate(-67.46 -56.3)"/><path class="cls-4" d="M517.74,1759.34c9.73,4,22.4,2.09,30.71,11.33s11,21.39,8.07,31.72c-10.57,1.83-22.39-2.09-30.71-11.32s-5.31-20.78-8.07-31.73Z" transform="translate(-67.46 -56.3)"/><path class="cls-4" d="M622.49,1813.32C610,1811.58,598,1802,583.8,1806.56s-24.32,15.56-27.53,28c9.89,8.3,24.52,11.32,38.71,6.76s18-18.35,27.51-28Z" transform="translate(-67.46 -56.3)"/><path class="cls-4" d="M485,1795.9c13.45,7.3,32,6.6,42.59,21.29s12.54,32.66,6.65,47.13c-15.6,1-32-6.6-42.59-21.26s-4.38-30.87-6.65-47.16Z" transform="translate(-67.46 -56.3)"/><polygon class="cls-5" points="816.67 707.44 738.31 707.44 718.87 1874.76 852.48 1874.76 816.67 707.44"/><polygon class="cls-6" points="788.37 1107.71 795.11 1023 1188.64 745.37 1161.5 765.97 788.37 1107.71"/><polygon class="cls-7" points="766.81 1377.83 755.45 1289.85 457.02 1001.24 483.21 1022.61 766.81 1377.83"/><polygon class="cls-8" points="758.72 870.51 764.3 799.08 1095.84 565.16 1072.93 582.49 758.72 870.51"/><path class="cls-9" d="M934.19,854.42a155.16,155.16,0,0,1-60.64,12.32,151.14,151.14,0,0,1-59.88-12.13,153.76,153.76,0,0,1-59.3,58.72,153.67,153.67,0,0,1-98.58,140.55A151.65,151.65,0,0,1,677,1131.47a153.57,153.57,0,0,1-153.64,153.64c-84.71,0-153.45-68.73-153.45-153.64a150.32,150.32,0,0,1,11.17-57.57,155.9,155.9,0,0,1-41.59,5.59c-84.9,0-153.64-68.74-153.64-153.45,0-72.58,50.45-133.42,118-149.6a158.07,158.07,0,0,1-3.28-32.15,150.32,150.32,0,0,1,11.17-57.57,156,156,0,0,1-41.59,5.59c-84.9,0-153.64-68.74-153.64-153.45a153.57,153.57,0,0,1,88.37-139,152.33,152.33,0,0,1-4.62-37.73c0-84.72,68.74-153.64,153.45-153.64a153,153,0,0,1,125.92,65.84A155,155,0,0,1,516,229.46,153.57,153.57,0,0,1,793.84,164a153.79,153.79,0,0,1,265.5-9.43c4.43-.39,9.05-.58,13.67-.58,84.71,0,153.45,68.73,153.45,153.64a154.73,154.73,0,0,1-7.71,48.32h4.82a153.58,153.58,0,0,1,106.85,263.77h4a153.53,153.53,0,0,1,54.87,296.89,151.72,151.72,0,0,1,21.18,77.59,153.58,153.58,0,0,1-153.64,153.64c-84.72,0-153.45-68.74-153.45-153.64a150.28,150.28,0,0,1,11.17-57.57,156,156,0,0,1-41.59,5.58,153.32,153.32,0,0,1-138.82-87.79Z" transform="translate(-67.46 -56.3)"/><path class="cls-10" d="M2632.11,1186.37l-1.93,0H1056.26L1366,694.73A24.73,24.73,0,0,1,1387,683h914.37a24.83,24.83,0,0,1,21,11.71Z" transform="translate(-67.46 -56.3)"/><path class="cls-11" d="M1756.22,1186.35H1033.54c-1.77,0-3.52.06-5.26.19a65.69,65.69,0,0,1,5.42-10l146.94-222.83L1340.7,711a61.55,61.55,0,0,1,103.17,0l160.06,242.73,147,222.83A66,66,0,0,1,1756.22,1186.35Z" transform="translate(-67.46 -56.3)"/><rect class="cls-12" x="1034.66" y="1129.32" width="1459.64" height="747.4"/><rect class="cls-11" x="1033.51" y="1118.58" width="609.87" height="758.15"/><rect class="cls-10" x="2178.56" y="1449.93" width="159.17" height="159.15"/><rect class="cls-13" x="2266.03" y="1462.54" width="59.87" height="59.87"/><rect class="cls-14" x="2190.39" y="1462.54" width="59.87" height="59.87"/><rect class="cls-15" x="2266.03" y="1536.59" width="59.87" height="59.87"/><rect class="cls-16" x="2190.39" y="1536.59" width="59.87" height="59.87"/><rect class="cls-10" x="1836.3" y="1449.93" width="159.17" height="159.15"/><rect class="cls-17" x="1923.77" y="1462.54" width="59.87" height="59.87"/><rect class="cls-18" x="1848.13" y="1462.54" width="59.87" height="59.87"/><rect class="cls-19" x="1923.77" y="1536.59" width="59.87" height="59.87"/><rect class="cls-20" x="1848.13" y="1536.59" width="59.87" height="59.87"/><rect class="cls-10" x="1263.13" y="875.05" width="133.68" height="133.66" rx="14.79"/><rect class="cls-21" x="1336.59" y="885.64" width="50.28" height="50.28" rx="14.79"/><rect class="cls-22" x="1273.06" y="885.64" width="50.28" height="50.28" rx="14.79"/><rect class="cls-23" x="1336.59" y="947.84" width="50.28" height="50.28" rx="14.79"/><rect class="cls-24" x="1273.06" y="947.84" width="50.28" height="50.28" rx="14.79"/><path class="cls-12" d="M1328.08,1391.08h163.4c43,0,78.14,36.5,78.14,81.05V1929c0,1.36,0,2.66-.11,4H1250.05c-.06-1.36-.11-2.66-.11-4V1472.13c0-44.55,35.19-81.05,78.14-81.05Z" transform="translate(-67.46 -56.3)"/><path class="cls-25" d="M1337.73,1391.08H1494.6c41.24,0,75,36.5,75,81.05V1929c0,1.36,0,2.66-.1,4H1262.81c0-1.36-.1-2.66-.1-4V1472.13c0-44.55,33.78-81.05,75-81.05Z" transform="translate(-67.46 -56.3)"/><path class="cls-26" d="M1321.71,1614.4H1512.9c13.51,0,24.46-11.36,24.46-25.37V1488.89c0-14-10.95-25.37-24.46-25.37H1321.71c-13.51,0-24.46,11.36-24.46,25.37V1589C1297.25,1603,1308.2,1614.4,1321.71,1614.4Z" transform="translate(-67.46 -56.3)"/><path class="cls-27" d="M1344,1585.8h146.61c13.5,0,24.45-11.36,24.45-25.37v-42.94c0-14-11-25.37-24.45-25.37H1344c-13.51,0-24.46,11.36-24.46,25.37v42.94C1319.54,1574.44,1330.49,1585.8,1344,1585.8Z" transform="translate(-67.46 -56.3)"/><path class="cls-28" d="M2095.59,799.65a213.64,213.64,0,0,1-224.55,0Z" transform="translate(-67.46 -56.3)"/><path class="cls-28" d="M2186.26,815.59a19.37,19.37,0,0,1-3.4,11.26c-2.11,2.89-5,4.68-8.17,4.68H1810.27c-6.36,0-11.56-7.18-11.56-15.94a19.31,19.31,0,0,1,3.39-11.25c2.1-2.89,5-4.69,8.17-4.69H1871c32.6,10.11,71,15.94,112.19,15.94s79.73-5.83,112.36-15.94h79.1C2181.05,799.65,2186.26,806.83,2186.26,815.59Z" transform="translate(-67.46 -56.3)"/><path class="cls-29" d="M2206.2,650.38A213.12,213.12,0,0,1,2105,831.84H1880.46a213.23,213.23,0,0,1-101.14-181.46c0-118,95.55-213.55,213.33-213.55A213.47,213.47,0,0,1,2206.2,650.38Z" transform="translate(-67.46 -56.3)"/><path class="cls-30" d="M1992.66,476.68c96,0,173.92,77.71,173.92,173.7s-77.94,173.7-173.92,173.7c-95.77,0-173.71-77.71-173.71-173.7s77.94-173.7,173.71-173.7Z" transform="translate(-67.46 -56.3)"/><path class="cls-31" d="M1992.66,490.55c92.24,0,166.87,74.85,166.87,166.88s-74.63,166.65-166.87,166.65A166.68,166.68,0,0,1,1826,657.43c0-92,74.63-166.88,166.66-166.88Z" transform="translate(-67.46 -56.3)"/><path class="cls-32" d="M2062.89,703.66c0,10.35-1.77,19.37-5.51,27.3a54.43,54.43,0,0,1-16.07,20,73.83,73.83,0,0,1-24.66,12.33c-3.52.88-7,1.76-10.78,2.42v7a9.74,9.74,0,0,1-9.47,9.69h-7.27a9.73,9.73,0,0,1-9.46-9.69v-5.51a81.7,81.7,0,0,1-14.75-1.54,110.19,110.19,0,0,1-17.18-4A107.42,107.42,0,0,1,1935,756.5a33.51,33.51,0,0,1-7.71-4.85,11.44,11.44,0,0,1-3.52-6.16,36,36,0,0,1-1.32-10.79,30.54,30.54,0,0,1,.66-7A43.72,43.72,0,0,1,1924,723a4.25,4.25,0,0,1,2-2.64,5.86,5.86,0,0,1,2.64-.66c1.76,0,4.18.88,7.27,2.86s7,4.19,11.66,6.61a133,133,0,0,0,16.3,6.38,73.38,73.38,0,0,0,21.79,3.08,56,56,0,0,0,16.73-2.2,33.34,33.34,0,0,0,13-5.72,26.45,26.45,0,0,0,8.59-9.91c2-4,2.86-8.81,2.86-14.31a23.21,23.21,0,0,0-4.18-14.09,46.12,46.12,0,0,0-11.23-10.13,99,99,0,0,0-16.07-7.7c-5.73-2.42-11.89-4.62-18-7.27A194.84,194.84,0,0,1,1959,659a70.61,70.61,0,0,1-15.85-11.67A50.12,50.12,0,0,1,1931.89,631a54.86,54.86,0,0,1-4.4-22.68,55.42,55.42,0,0,1,4.62-22.45,50.91,50.91,0,0,1,13.43-18.72,73,73,0,0,1,22.68-13,86.56,86.56,0,0,1,11.45-3.08v-9.25a9.53,9.53,0,0,1,9.46-9.46h7.27a9.54,9.54,0,0,1,9.47,9.46v7.71c3.3.22,6.6.66,9.9,1.1a104.42,104.42,0,0,1,14.31,3.52,74.73,74.73,0,0,1,11,4.41,63.87,63.87,0,0,1,6.83,4.4,13.4,13.4,0,0,1,3.08,3.08,11.05,11.05,0,0,1,1.1,2.86c.22,1.1.44,2.42.66,4.19a46.14,46.14,0,0,1,.22,5.94,55.71,55.71,0,0,1-.22,6.38,18.23,18.23,0,0,1-1.1,4.41,6.4,6.4,0,0,1-2,2.64,4.43,4.43,0,0,1-2.42.66c-1.33,0-3.09-.88-5.73-2.42-2.42-1.54-5.72-3.3-9.69-5.29a101.86,101.86,0,0,0-14.09-5.06,58.06,58.06,0,0,0-18.27-2.64,61.22,61.22,0,0,0-16.51,2.2,28.16,28.16,0,0,0-11.45,6,21,21,0,0,0-6.82,9,24.91,24.91,0,0,0-2.43,11.45,23.1,23.1,0,0,0,4.41,14.31A43.46,43.46,0,0,0,1978.13,631a108.88,108.88,0,0,0,16.07,7.92c6.16,2.42,12.11,4.85,18.49,7.27,6.16,2.42,12.33,5.28,18.49,8.36a70.41,70.41,0,0,1,16.08,11.23,48.92,48.92,0,0,1,11.44,15.85c2.87,6.17,4.19,13.65,4.19,22Z" transform="translate(-67.46 -56.3)"/><polygon class="cls-11" points="2015.9 434.69 2019.64 483.79 2068.74 487.53 2019.64 491.27 2015.9 540.37 2012.16 491.27 1962.84 487.53 2012.16 483.79 2015.9 434.69"/><path class="cls-33" d="M955.79,1312.74c139.43,0,252.46,113,252.46,252.48s-113,252.46-252.46,252.46-252.48-113-252.48-252.46,113-252.48,252.48-252.48Zm0,95.61a156.88,156.88,0,1,1-156.87,156.87,156.88,156.88,0,0,1,156.87-156.87Z" transform="translate(-67.46 -56.3)"/><path class="cls-11" d="M955.79,1821a255.06,255.06,0,1,1,99.57-20.11A254.26,254.26,0,0,1,955.79,1821Zm0-504.95c-137.37,0-249.14,111.77-249.14,249.14s111.77,249.12,249.14,249.12,249.12-111.75,249.12-249.12S1093.16,1316.08,955.79,1316.08Zm0,409.36a160.23,160.23,0,1,1,113.29-46.93A159.18,159.18,0,0,1,955.79,1725.44Zm0-313.75c-84.65,0-153.53,68.88-153.53,153.53s68.88,153.53,153.53,153.53,153.53-68.87,153.53-153.53S1040.45,1411.69,955.79,1411.69Z" transform="translate(-67.46 -56.3)"/><path class="cls-34" d="M1105.51,1612.18l91.17,28.62a252.46,252.46,0,0,1-240.89,176.88c-139.45,0-252.48-113-252.48-252.46s113-252.48,252.48-252.48v95.61a156.88,156.88,0,1,0,149.72,203.83Z" transform="translate(-67.46 -56.3)"/><path class="cls-11" d="M955.79,1821a255.82,255.82,0,1,1,0-511.64h3.35v102.3h-3.35c-84.65,0-153.53,68.88-153.53,153.53s68.88,153.53,153.53,153.53a152.88,152.88,0,0,0,146.53-107.57l1-3.2,97.55,30.63-1,3.19A255.71,255.71,0,0,1,955.79,1821Zm-3.34-504.93c-135.84,1.8-245.8,112.86-245.8,249.12,0,137.37,111.77,249.12,249.14,249.12A248.06,248.06,0,0,0,1192.47,1643l-84.8-26.62a161.72,161.72,0,0,1-56.15,77.34A160.22,160.22,0,1,1,952.45,1405Z" transform="translate(-67.46 -56.3)"/><path class="cls-35" d="M804.42,1523.92l-92.2-25.13a252.46,252.46,0,0,1,243.57-186v95.61a156.94,156.94,0,0,0-151.37,115.57Z" transform="translate(-67.46 -56.3)"/><path class="cls-11" d="M806.77,1528l-98.65-26.9.88-3.22a255.71,255.71,0,0,1,246.79-188.52h3.35v102.3h-3.35A153.83,153.83,0,0,0,807.64,1524.8Zm-90.42-31.58,85.75,23.37a161.45,161.45,0,0,1,55.62-81.3A158.59,158.59,0,0,1,952.45,1405v-88.93C842.91,1317.57,746.59,1391.15,716.35,1496.45Z" transform="translate(-67.46 -56.3)"/><path class="cls-3" d="M1103.27,1781.83l18.06,2.2c12.69,12,26.68,16.16,40.44,23.59l-44.64,4.56Z" transform="translate(-67.46 -56.3)"/><path class="cls-3" d="M1106.07,1752.82l-20.61,10,21.2,30.1c3.41,2.83,18-2.45,14.67-8.9Z" transform="translate(-67.46 -56.3)"/><path class="cls-36" d="M1200.16,1797.2c6.76-17.25-35.76,20.67-89.71-3.94-2.48-1.37-3.79-.33-2.88,1.49,5.11,17.63,15.32,30.76,23,46.11l3.08-1.29c-3.23-7.94-6.5-15.88-9.73-23.83,8.54,6.35,30.7,7.44,37.66,4,6.6-2.45,23.49-13.71,38.59-22.54Z" transform="translate(-67.46 -56.3)"/><path class="cls-3" d="M1047.07,1860.36l14.41,11.05c4.89,16.8,14.88,27.42,23,40.8l-40.82-18.64Z" transform="translate(-67.46 -56.3)"/><path class="cls-3" d="M1064.14,1836.76l-22.86-1.77,3.06,36.68c1.51,4.19,16.76,7,17.14-.26Z" transform="translate(-67.46 -56.3)"/><path class="cls-26" d="M1122.84,1922.66c14.55-11.46-41.3-.28-75.39-48.79-1.44-2.43-3.11-2.2-3.24-.18-4.5,17.8-2.33,34.27-3.49,51.42l3.31.45q1.83-12.74,3.64-25.49c4.18,9.81,22.74,22,30.48,22.51,6.93,1.21,27.22.05,44.69.08Z" transform="translate(-67.46 -56.3)"/><polygon class="cls-26" points="1006.95 1654.63 996.55 1681.09 1008.06 1807.12 973.81 1808.21 949.51 1673.43 839 1672.31 957.25 1618.19 1006.95 1654.63"/><path class="cls-37" d="M958,1568.1l5.11-21,38.88,6.75,98.18-16.76,3.62,15c-34.22,7.84-96.8,23.55-102.66,23.52-5.67-.23-28.76-5-43.13-7.49Z" transform="translate(-67.46 -56.3)"/><path class="cls-37" d="M1092.59,1545.85l4.1-7.39c3.67-5.34,6.91-17.25,11-16,2.65,1.06-2.08,8-.05,11.48,6.73,4.66,21.7-12.79,26.86-8.65,7.84,6,8.12,19,0,23.93-4.2,2.88-19.62,2.13-33.31,4.15Z" transform="translate(-67.46 -56.3)"/><path class="cls-38" d="M950,1454.67c-3.64,16.31,19.75-2,19.75-22.16,0-6.42-2.15-22.81-9.91-23.17-1.49-9.33-57.44-12.85-59.46,29.7-1.17,24.35-34.71,2.1-32.08,68.46.18,4.68-24.76,22.39-8,51.12,15.17,26,35.91,33.66,36.67,34.9,4,0,68.9-21.85,39.43-43.63-22.66-16.74.63-46.33,5.69-71.14.08-.38,7.89-24,7.92-24.08Z" transform="translate(-67.46 -56.3)"/><path class="cls-39" d="M911.93,1528.8l22.08,1.64c18.36,2.91,43,16.49,50.36,18,4.52,10.42.35,19.25-4.91,27.22-7-.74-20.92-2.61-31.36-3.92l11.71,118.67-83.27-2.2,9.31-101.4.13-10.67c5.23-40.85-15-38.35,7-43.73a165.23,165.23,0,0,1,19-3.57Z" transform="translate(-67.46 -56.3)"/><path class="cls-37" d="M909,1498l25.09,7q-.08,12.8-.13,25.58c-5.64,22-20.86,3.16-24-.13Z" transform="translate(-67.46 -56.3)"/><path class="cls-40" d="M950,1454.67c7.46,6.5,1.87,17,10.17,24.81,16.84,15.81-2.94,9.51-2.94,15,0,12.88-2.78,14.9-10.87,26-3.85,5.32-27.6,11.26-40.34-13.35-3-5.77-8.4-10.17-2.74-21,14.65-28,9.89-16.77,22.36-20.77,16.72-5.39,21.5-12.14,24.36-10.72Z" transform="translate(-67.46 -56.3)"/><path class="cls-36" d="M1034.65,1698.79c-48.74,11.31-166.3,90.6-158.11-10.62,77.8-15,138.2-48.51,170.81-43,28.17,8.82,64.64,105,70.71,118.77-9,4.43-18.06,9.38-27.06,13.81-19.47-25.27-33.71-56.18-56.35-79Z" transform="translate(-67.46 -56.3)"/><path class="cls-37" d="M966.61,1688.88l7.56,1.13c5.69,1.42,16.85.38,17.08,4.25,0,2.56-7.44.76-9.77,3.57-1.79,7.21,17.76,14.37,15.86,20.08-2.63,8.55-13.58,12.9-20.31,7.54-3.77-2.63-8-16-14.09-26.94Z" transform="translate(-67.46 -56.3)"/><path class="cls-37" d="M892.33,1584.92l-23,.74c1.42,15.53,4.68,53.16,10.78,58.07L964,1700.61l6.45-11.18c-24.77-17.55-47.63-38.85-72.37-56.4-4.42-14.34-3.31-29.24-5.71-48.11Z" transform="translate(-67.46 -56.3)"/><path class="cls-39" d="M892.23,1541.93c-3-2.08-4.18-7.49-8-6.76-13.36,2.94-16.67,41.53-16.54,49.8,4.53,3.75,20,7.06,30,1.67Z" transform="translate(-67.46 -56.3)"/><path class="cls-3" d="M931.61,1508.82c6.57.58,11.35,3,19-.81-6.88,12.37-15,4.68-19,.81Z" transform="translate(-67.46 -56.3)"/><path class="cls-4" d="M2164.2,1917.92c-36.76-49-112.35-143.3-114.23-139.37,6.92,6,86.6,105.62,108.05,151.49Z" transform="translate(-67.46 -56.3)"/><path class="cls-4" d="M2037.53,1764.74c4.25,1.62,9.7.7,13.39,4.61a8,8,0,1,1-9.6,9c-3.67-3.91-2.48-8.93-3.79-13.64Z" transform="translate(-67.46 -56.3)"/><path class="cls-4" d="M2045.51,1797.9c2.79-1.79,4.61-5.38,8.5-5.83a5.82,5.82,0,1,1,1.12,9.52c-3.87.45-6.3-2.42-9.62-3.69Z" transform="translate(-67.46 -56.3)"/><path class="cls-4" d="M2063,1775.11c.81,2.28,3.06,4.14,2.75,7a4.21,4.21,0,1,1-6.9-.74c.3-2.83,2.71-4.06,4.15-6.21Z" transform="translate(-67.46 -56.3)"/><path class="cls-4" d="M2081.49,1784.06c-2.36,3.55-7,5.82-7.72,10.82a7.5,7.5,0,1,0,12.25,1.66c.69-5-3-8.17-4.53-12.48Z" transform="translate(-67.46 -56.3)"/><path class="cls-4" d="M2055.83,1822.2c4-2.56,6.62-7.71,12.18-8.38a8.36,8.36,0,1,1,1.64,13.68c-5.59.65-9.06-3.46-13.82-5.3Z" transform="translate(-67.46 -56.3)"/><path class="cls-4" d="M2104.39,1797c-3.78,4.79-10.71,7.47-12.25,14.51a19.75,19.75,0,0,0,5,18.34,19.72,19.72,0,0,0,12.26-14.53c1.56-7-3.26-12-5-18.32Z" transform="translate(-67.46 -56.3)"/><path class="cls-4" d="M2060.73,1852.74c6.53-4.17,10.81-12.6,19.91-13.67s17.6,2.46,22.57,8.64c-3.4,7.17-10.81,12.6-19.91,13.69s-14.79-5.65-22.57-8.66Z" transform="translate(-67.46 -56.3)"/><path class="cls-4" d="M2137.93,1812.59c-6.39,6.79-17.27,10-20.57,20.46s-1,21.28,5.17,28.54c9.21-2.43,17.27-10,20.57-20.46s-3.38-18.67-5.17-28.54Z" transform="translate(-67.46 -56.3)"/><path class="cls-4" d="M2068.82,1888.07c10.13-5,17.63-16.51,31-16.63s25,6.38,31.25,16.09c-6,9.83-17.64,16.51-31,16.63s-20.48-10.53-31.27-16.09Z" transform="translate(-67.46 -56.3)"/><path class="cls-4" d="M2177.09,1919.59c-5.46-82.74-21.45-245.59-26.48-242.52,3.45,11.85,20.11,183.81,10.54,251.69Z" transform="translate(-67.46 -56.3)"/><path class="cls-4" d="M2146.73,1652.23c3.61,5,10.47,8,11.77,15.11a20,20,0,0,1-5.79,18.27,19.94,19.94,0,0,1-11.77-15.12c-1.28-7.16,3.77-12,5.79-18.26Z" transform="translate(-67.46 -56.3)"/><path class="cls-4" d="M2131.26,1695.73c4.49,0,9.21-2.7,13.95-.35a7.88,7.88,0,1,1-5.76,11.64c-4.75-2.36-5.36-7.39-8.19-11.29Z" transform="translate(-67.46 -56.3)"/><path class="cls-4" d="M2167.87,1682.79c-.74,3.16.41,6.94-2,9.9a5.71,5.71,0,1,1-7.28-6c2.42-3,6.08-2.58,9.29-3.94Z" transform="translate(-67.46 -56.3)"/><path class="cls-4" d="M2182.28,1706.63c-5.3,2.29-12.27,1.41-16.72,6.56a10.15,10.15,0,1,0,12.64,11c4.46-5.18,2.68-11.47,4.08-17.51Z" transform="translate(-67.46 -56.3)"/><path class="cls-4" d="M2125,1730.92c6.42,0,13.2-3.88,20-.49a20.84,20.84,0,0,1,11.76,16.2,20.75,20.75,0,0,1-20,.49c-6.82-3.37-7.71-10.61-11.75-16.2Z" transform="translate(-67.46 -56.3)"/><path class="cls-4" d="M2198.67,1738.27c-7.83,2.64-17.67.57-24.63,7.4s-9.68,16.25-7.88,24.49c8.22,1.95,17.66-.57,24.64-7.4s5.16-16,7.87-24.49Z" transform="translate(-67.46 -56.3)"/><path class="cls-4" d="M2108,1769.17c10.5.1,21.57-6.3,32.7-.78s18.12,15.8,19.2,26.48c-9.15,5.61-21.58,6.3-32.7.8s-12.59-17.35-19.2-26.5Z" transform="translate(-67.46 -56.3)"/><path class="cls-4" d="M2225.18,1780.71c-12.26,3-26.93-1.48-38.45,8s-16.86,23.42-15.23,36.21c12.23,4,26.95,1.48,38.45-8s10-23.68,15.23-36.19Z" transform="translate(-67.46 -56.3)"/><path class="cls-4" d="M2091,1815.21c15.19,1.81,32.21-5.68,47.43,4.06s23.67,25.73,23.55,41.36c-14.15,6.65-32.21,5.68-47.43-4.06s-15.44-27.07-23.55-41.36Z" transform="translate(-67.46 -56.3)"/><path class="cls-4" d="M2189.16,1929.15c22.5-69.83,62.49-209,57.36-208.1-1,10.88-43.45,157.74-73.48,210.45Z" transform="translate(-67.46 -56.3)"/><path class="cls-4" d="M2251.42,1699.35c1.35,5.28,6,10,4.74,16.28a9.57,9.57,0,1,1-15.44-3.15c1.27-6.3,7-8.59,10.7-13.13Z" transform="translate(-67.46 -56.3)"/><path class="cls-4" d="M2224.51,1730.08c3.68,1.5,8.45.79,11.58,4.27a7,7,0,1,1-8.52,7.7c-3.15-3.49-2-7.84-3.06-12Z" transform="translate(-67.46 -56.3)"/><path class="cls-4" d="M2258.85,1731.39c-1.66,2.36-1.93,5.84-4.9,7.48a5,5,0,1,1-4-7.26c3-1.66,5.86-.14,8.94-.22Z" transform="translate(-67.46 -56.3)"/><path class="cls-4" d="M2262.92,1755.7c-5.1.14-10.55-2.85-15.89-.06a9,9,0,1,0,6.81,13.12c5.36-2.78,5.95-8.55,9.08-13.06Z" transform="translate(-67.46 -56.3)"/><path class="cls-4" d="M2207.86,1757c5.28,2.15,12.13,1.14,16.63,6.14a10,10,0,1,1-12.25,11.05c-4.49-5-2.87-11.26-4.38-17.19Z" transform="translate(-67.46 -56.3)"/><path class="cls-4" d="M2266.07,1787.07c-7.3-.39-14.71-5.3-22.68-2a23.63,23.63,0,0,0-14.46,17.57,23.68,23.68,0,0,0,22.68,2c8-3.35,9.47-11.5,14.46-17.57Z" transform="translate(-67.46 -56.3)"/><path class="cls-4" d="M2181.38,1782.89c8.61,3.51,19.81,1.84,27.16,10s9.74,18.92,7.14,28.06c-9.35,1.62-19.81-1.85-27.16-10s-4.69-18.37-7.14-28Z" transform="translate(-67.46 -56.3)"/><path class="cls-4" d="M2274,1830.63c-11-1.55-21.66-10-34.21-6s-21.51,13.75-24.35,24.81c8.75,7.33,21.68,10,34.23,6s15.95-16.23,24.33-24.8Z" transform="translate(-67.46 -56.3)"/><path class="cls-4" d="M2152.43,1815.22c11.89,6.46,28.34,5.84,37.67,18.82s11.08,28.89,5.87,41.69c-13.79.86-28.33-5.84-37.67-18.81s-3.87-27.3-5.87-41.7Z" transform="translate(-67.46 -56.3)"/><path class="cls-41" d="M1546.05,1927.76a76.91,76.91,0,0,1,4.08-12.9,172.31,172.31,0,0,1,3.5,28.33,125.09,125.09,0,0,0-7.58-15.43Zm-1224.69,0c1.17-4.41,2.53-8.66,4.09-12.9a198.77,198.77,0,0,1,3.69,28.33,104.27,104.27,0,0,0-7.78-15.43Zm630.53,0c1.17-4.41,2.53-8.66,4.09-12.9a198.77,198.77,0,0,1,3.69,28.33,105.25,105.25,0,0,0-7.78-15.43Zm302.62,0a76.91,76.91,0,0,0-4.08-12.9,173.4,173.4,0,0,0-3.5,28.33,87.41,87.41,0,0,1,7.58-15.43Zm-18.28-39a139.48,139.48,0,0,0-15.36-18,189.18,189.18,0,0,0-9.14,31.72,115.53,115.53,0,0,1,9.14,16.28,222.19,222.19,0,0,1,15.36-30Zm-14.78-19.34a157.25,157.25,0,0,1,18.09,14.08,193.15,193.15,0,0,1,19.84-25.45c-3.12-3.22-6.23-6.44-9.73-9.5a134.71,134.71,0,0,1,11.48,7.47,217.82,217.82,0,0,1,39.48-32.91c3.5-5.26,7.19-10.52,11.28-15.78-2,4.07-3.7,8-5.25,11.88a8.48,8.48,0,0,0,1.36-.85c-.59.51-1,1-1.56,1.52-9.53,23.75-13.42,45.47-13,65.82a164,164,0,0,1,15,21.21,190,190,0,0,1,18.08-47.84c-3.3-3.39-6.8-7-10.69-10.52,4.28,2.55,8.36,5.26,12.25,8a174.81,174.81,0,0,1,17.31-25.45c-4.09-4.24-8.17-8.48-12.84-12.72,5.25,3.22,10.31,6.61,15.17,10a207,207,0,0,1,18.09-19,195.48,195.48,0,0,0-13.61,22.22c7,5.43,13.61,11,19.64,16.62a258.23,258.23,0,0,1,21.78-24.42,276.92,276.92,0,0,0-29.56-33.59,267,267,0,0,1,36.17,27.48,270,270,0,0,1,36.37-27.48,297,297,0,0,0-29.75,33.59,234.37,234.37,0,0,1,22,24.42c6-5.59,12.65-11.19,19.65-16.62a229.38,229.38,0,0,0-13.62-22.22,236.25,236.25,0,0,1,18.09,19c4.86-3.4,9.92-6.79,15.17-10q-7,6.36-12.84,12.72a174.81,174.81,0,0,1,17.31,25.45c3.89-2.72,8-5.43,12.26-8-3.89,3.57-7.39,7.13-10.7,10.52a190.08,190.08,0,0,1,18.09,47.84,164.84,164.84,0,0,1,15-21.21c.39-20.35-3.5-42.07-13-65.82a10.68,10.68,0,0,1-1.55-1.52,7.67,7.67,0,0,0,1.36.85c-1.75-3.91-3.5-7.81-5.25-11.88,4.08,5.26,7.78,10.52,11.28,15.78a210.26,210.26,0,0,1,39.28,32.91c3.7-2.55,7.59-5.09,11.67-7.47a117,117,0,0,0-9.72,9.5,177.42,177.42,0,0,1,19.64,25.45,144.68,144.68,0,0,1,18.28-14.08c-10.5-26.29-27.61-52.59-55-79.22,39.48,25.1,66.13,55.47,84.22,87.36,4.27-4.41,8.75-8.65,13.61-12.89-5.06-17.64-13.61-36-27-55.3a201.46,201.46,0,0,1,37.73,47.16c3.89-2.72,7.78-5.43,12.05-8-3.69,3.57-7.39,7.13-10.69,10.52a182.68,182.68,0,0,1,18.08,47.84,186.07,186.07,0,0,1,15-21.21v-1.18a185.65,185.65,0,0,0-17.31-19,178.79,178.79,0,0,1,17.31,12.21c-.78-21.71-6.22-45-18.48-70.4,16.34,20.7,27,41.9,33.26,62.94,4.09-3.73,8.36-7.3,12.84-10.86-3.31-3.56-7-7.29-10.89-10.86a149.13,149.13,0,0,1,13.61,9,144.43,144.43,0,0,1,13.42-9c-3.89,3.57-7.59,7.3-10.89,10.86a148.67,148.67,0,0,1,12.83,10.86,190.65,190.65,0,0,1,33.26-62.94c-12.06,25.45-17.7,48.69-18.47,70.4a180.85,180.85,0,0,1,17.5-12.21,167.7,167.7,0,0,0-17.5,19v1.18a164.84,164.84,0,0,1,15,21.21,183.07,183.07,0,0,1,18.09-47.84c-3.31-3.39-6.81-7-10.7-10.52,4.28,2.55,8.36,5.26,12.06,8a197.52,197.52,0,0,1,37.93-47.16c-13.62,19.34-22.18,37.66-27.23,55.3a177.59,177.59,0,0,1,13.61,12.89c18.09-31.89,44.73-62.26,84.41-87.36-27.42,26.63-44.73,52.93-55,79.22a157.25,157.25,0,0,1,18.09,14.08,192.24,192.24,0,0,1,19.64-25.45c-2.92-3.22-6.22-6.44-9.53-9.5,3.89,2.38,7.78,4.92,11.47,7.47a206.12,206.12,0,0,1,39.48-32.91c3.31-5.26,7.2-10.52,11.29-15.78-2,4.07-3.7,8-5.26,11.88a8.19,8.19,0,0,1,1.37-.85l-1.75,1.52c-9.53,23.75-13.23,45.47-12.84,65.82a184.71,184.71,0,0,1,15,21.21,182.39,182.39,0,0,1,17.9-47.84c-3.31-3.39-6.81-7-10.51-10.52,4.09,2.55,8.17,5.26,12.06,8,9.14-16.29,21.59-32.07,37.73-47.16-13.42,19.34-22.17,37.66-27,55.3,4.86,4.24,9.34,8.48,13.61,12.89a233.67,233.67,0,0,1,31.9-43.93q-7-7.63-15.17-15.27,9.63,5.85,18.09,12.21a245.88,245.88,0,0,1,28-25.27c-4.47-5.09-9.33-10-14.58-15.1,6.41,4.07,12.25,8.14,18.08,12.38,5.64-4.24,11.67-8.31,17.9-12.38-5.25,5.09-9.92,10-14.4,15.1a243.8,243.8,0,0,1,27.82,25.27q8.46-6.36,18.08-12.21-8.16,7.64-15.17,15.27a234.46,234.46,0,0,1,32.09,43.93,148.4,148.4,0,0,1,13.62-12.89c-5.06-17.64-13.81-36-27.23-55.3a191.65,191.65,0,0,1,37.73,47.16c3.89-2.72,8-5.43,12.25-8-3.89,3.57-7.39,7.13-10.69,10.52a190,190,0,0,1,18.08,47.84,164,164,0,0,1,15-21.21c.39-20.35-3.5-42.07-13-65.82a11.32,11.32,0,0,1-1.56-1.52,8.48,8.48,0,0,0,1.36.85c-1.75-3.91-3.5-7.81-5.25-11.88,4.09,5.26,7.78,10.52,11.28,15.78a210,210,0,0,1,39.29,32.91c3.69-2.55,7.58-5.09,11.67-7.47-3.5,3.06-6.61,6.28-9.73,9.5a193.15,193.15,0,0,1,19.84,25.45,128.88,128.88,0,0,1,18.09-14.08c-10.5-26.29-27.62-52.59-55-79.22,39.48,25.1,66.13,55.47,84.21,87.36,4.28-4.41,8.75-8.65,13.62-12.89-5.06-17.64-13.62-36-27-55.3a200.94,200.94,0,0,1,37.73,47.16c3.89-2.72,7.78-5.43,12.06-8-3.69,3.57-7.39,7.13-10.7,10.52a182.37,182.37,0,0,1,18.09,47.84,186.07,186.07,0,0,1,15-21.21v-1.18a185.65,185.65,0,0,0-17.31-19,178.79,178.79,0,0,1,17.31,12.21c-.78-21.71-6.23-45-18.48-70.4,16.34,20.7,27,41.9,33.26,62.94,4.08-3.73,8.36-7.3,12.83-10.86-3.3-3.56-7-7.29-10.89-10.86a147.93,147.93,0,0,1,13.62,9c4.28-3.22,8.75-6.1,13.42-9-3.89,3.57-7.59,7.3-10.89,10.86a150.21,150.21,0,0,1,12.83,10.86,190.46,190.46,0,0,1,33.26-62.94c-12.06,25.45-17.7,48.69-18.48,70.4a182.27,182.27,0,0,1,17.51-12.21,168.78,168.78,0,0,0-17.51,19v1.18a164,164,0,0,1,15,21.21,189.7,189.7,0,0,1,18.09-47.84c-3.31-3.39-6.81-7-10.7-10.52,4.28,2.55,8.36,5.26,12.06,8a197.46,197.46,0,0,1,37.92-47.16c-13.61,19.34-22.17,37.66-27.23,55.3a177.77,177.77,0,0,1,13.62,12.89c18.09-31.89,44.73-62.26,84.41-87.36-27.43,26.63-44.74,52.93-55,79.22a156.26,156.26,0,0,1,18.08,14.08,192.33,192.33,0,0,1,19.65-25.45c-2.92-3.22-6.23-6.44-9.53-9.5,3.89,2.38,7.78,4.92,11.47,7.47a205.51,205.51,0,0,1,39.48-32.91c3.31-5.26,7.2-10.52,11.28-15.78-1.94,4.07-3.69,8-5.25,11.88a8.48,8.48,0,0,1,1.36-.85c-.58.51-1.16,1-1.75,1.52-9.53,23.75-13.22,45.47-12.83,65.82a186,186,0,0,1,15,21.21,182.35,182.35,0,0,1,17.89-47.84c-3.3-3.39-6.8-7-10.5-10.52,4.09,2.55,8.17,5.26,12.06,8,9.14-16.29,21.59-32.07,37.73-47.16-13.42,19.34-22.17,37.66-27,55.3,4.86,4.24,9.33,8.48,13.61,12.89,17.89-31.89,44.73-62.26,84.21-87.36-38.89,37.83-57.37,74.81-64.76,112.3a138.2,138.2,0,0,1,9.14,16.28c15.17-36.64,41.43-72.6,87.13-100.42-44.73,41.56-58.93,82.61-61.26,124.85,8-19.34,21.59-38.51,45.9-53.26-19.26,17.81-27.62,35.62-30.73,53.77H154.11c-3.12-18.15-11.48-36-30.73-53.77,24.11,14.75,37.92,33.92,45.7,53.26-2.33-42.24-16.53-83.29-61.07-124.85,45.71,27.82,71.77,63.78,87.13,100.42a115.53,115.53,0,0,1,9.14-16.28c-7.39-37.49-25.86-74.47-64.76-112.3,39.48,25.1,66.32,55.47,84.21,87.36,4.28-4.41,8.75-8.65,13.62-12.89-5.06-17.64-13.62-36-27-55.3A201.2,201.2,0,0,1,248,1856.51c3.89-2.72,7.78-5.43,12.06-8-3.69,3.57-7.39,7.13-10.7,10.52a182.37,182.37,0,0,1,18.09,47.84,186.07,186.07,0,0,1,15-21.21c.39-20.35-3.31-42.07-12.84-65.82l-1.75-1.52a8.48,8.48,0,0,1,1.36.85c-1.55-3.91-3.3-7.81-5.25-11.88,4.09,5.26,8,10.52,11.28,15.78A217.82,217.82,0,0,1,314.75,1856c3.7-2.55,7.59-5.09,11.48-7.47-3.31,3.06-6.62,6.28-9.53,9.5a192.24,192.24,0,0,1,19.64,25.45,156.39,156.39,0,0,1,18.09-14.08c-10.31-26.29-27.62-52.59-55-79.22,39.67,25.1,66.32,55.47,84.4,87.36a148.4,148.4,0,0,1,13.62-12.89c-5.06-17.64-13.62-36-27.23-55.3a191.65,191.65,0,0,1,37.73,47.16c3.89-2.72,8-5.43,12.25-8-3.89,3.57-7.39,7.13-10.69,10.52a190,190,0,0,1,18.08,47.84,164.94,164.94,0,0,1,15-21.21v-1.18a168.64,168.64,0,0,0-17.5-19,159.07,159.07,0,0,1,17.31,12.21c-.78-21.71-6.23-45-18.29-70.4a190.46,190.46,0,0,1,33.26,62.94,148.85,148.85,0,0,1,12.84-10.86c-3.31-3.56-7-7.29-10.89-10.86,4.66,2.89,9.14,5.77,13.42,9a147.76,147.76,0,0,1,13.61-9c-3.89,3.57-7.59,7.3-10.89,10.86,4.47,3.56,8.75,7.13,12.83,10.86,6.23-21,16.92-42.24,33.26-62.94-12.25,25.45-17.7,48.69-18.47,70.4a178.62,178.62,0,0,1,17.3-12.21,165.86,165.86,0,0,0-17.3,19v1.18a186,186,0,0,1,15,21.21,182.35,182.35,0,0,1,17.89-47.84c-3.11-3.39-6.8-7-10.5-10.52,4.28,2.55,8.17,5.26,12.06,8a201.2,201.2,0,0,1,37.73-47.16c-13.42,19.34-22.17,37.66-27,55.3,4.86,4.24,9.33,8.48,13.61,12.89,17.89-31.89,44.73-62.26,84.21-87.36-27.42,26.63-44.73,52.93-55,79.22A155.54,155.54,0,0,1,609,1883.48,194,194,0,0,1,628.85,1858c-3.11-3.22-6.23-6.44-9.73-9.5A134.71,134.71,0,0,1,630.6,1856a218.16,218.16,0,0,1,39.48-32.91c3.5-5.26,7.2-10.52,11.28-15.78-1.94,4.07-3.7,8-5.25,11.88a8.48,8.48,0,0,0,1.36-.85c-.58.51-1,1-1.56,1.52-9.53,23.75-13.42,45.47-13,65.82a164,164,0,0,1,15,21.21A189.7,189.7,0,0,1,696,1859.05c-3.31-3.39-6.81-7-10.7-10.52,4.28,2.55,8.36,5.26,12.25,8a191.88,191.88,0,0,1,37.73-47.16c-13.61,19.34-22.17,37.66-27.23,55.3a177.77,177.77,0,0,1,13.62,12.89,242.88,242.88,0,0,1,31.89-43.93c-4.47-5.09-9.53-10.18-15-15.27q9.63,5.85,18.09,12.21a227.12,227.12,0,0,1,27.81-25.27c-4.48-5.09-9.34-10-14.39-15.1,6.22,4.07,12.25,8.14,17.89,12.38,5.64-4.24,11.67-8.31,18.09-12.38-5.26,5.09-10.12,10-14.59,15.1a246,246,0,0,1,28,25.27q8.46-6.36,18.08-12.21-8.16,7.64-15.17,15.27a242.47,242.47,0,0,1,31.9,43.93c4.28-4.41,8.75-8.65,13.61-12.89-4.86-17.64-13.61-36-27-55.3a201.46,201.46,0,0,1,37.73,47.16c3.89-2.72,7.78-5.43,12.06-8-3.7,3.57-7.39,7.13-10.7,10.52A183.07,183.07,0,0,1,898,1906.89a186,186,0,0,1,15-21.21c.39-20.35-3.3-42.07-12.83-65.82-.59-.5-1.17-1-1.75-1.52a8.48,8.48,0,0,1,1.36.85c-1.56-3.91-3.31-7.81-5.25-11.88,4.08,5.26,8,10.52,11.28,15.78A218.51,218.51,0,0,1,945.28,1856c3.69-2.55,7.58-5.09,11.47-7.47-3.3,3.06-6.61,6.28-9.53,9.5a192.33,192.33,0,0,1,19.65,25.45A156.26,156.26,0,0,1,985,1869.4c-10.3-26.29-27.61-52.59-55-79.22,39.68,25.1,66.32,55.47,84.41,87.36a177.77,177.77,0,0,1,13.62-12.89c-5.06-17.64-13.62-36-27.23-55.3a191.88,191.88,0,0,1,37.73,47.16c3.89-2.72,8-5.43,12.25-8-3.89,3.57-7.39,7.13-10.7,10.52a189.7,189.7,0,0,1,18.09,47.84,164,164,0,0,1,15-21.21v-1.18a168.78,168.78,0,0,0-17.51-19,157.14,157.14,0,0,1,17.31,12.21c-.78-21.71-6.22-45-18.28-70.4a190.46,190.46,0,0,1,33.26,62.94,150.21,150.21,0,0,1,12.83-10.86c-3.3-3.56-7-7.29-10.89-10.86,4.67,2.89,9.14,5.77,13.42,9a147.93,147.93,0,0,1,13.62-9c-3.89,3.57-7.59,7.3-10.89,10.86,4.47,3.56,8.75,7.13,12.83,10.86,6.23-21,16.92-42.24,33.26-62.94-12.25,25.45-17.7,48.69-18.48,70.4a178.79,178.79,0,0,1,17.31-12.21,165.07,165.07,0,0,0-17.31,19v1.18a186.07,186.07,0,0,1,15,21.21,182.37,182.37,0,0,1,18.09-47.84c-3.31-3.39-7-7-10.7-10.52,4.28,2.55,8.17,5.26,12.06,8a200.94,200.94,0,0,1,37.73-47.16c-13.42,19.34-22.17,37.66-27,55.3,4.87,4.24,9.34,8.48,13.62,12.89,17.89-31.89,44.73-62.26,84.21-87.36-27.42,26.63-44.73,52.93-55,79.22ZM1349.81,1836a175.5,175.5,0,0,0-11.28,28.67,179.64,179.64,0,0,1,13.62,12.89c4.08-7.12,8.55-14.08,13.42-21a229,229,0,0,0-15.76-20.53Zm50.37-2.71a205.48,205.48,0,0,0-15.55,28.5,213.59,213.59,0,0,1,15.55,20.52,216.48,216.48,0,0,1,15.76-20.52,189,189,0,0,0-15.76-28.5ZM1378,1878.56a214.85,214.85,0,0,0-6.22,23.92,138.2,138.2,0,0,1,9.14,16.28c1.94-4.91,4.28-9.83,6.61-14.58a150.94,150.94,0,0,0-9.53-25.62Zm72.74-42.58a196.78,196.78,0,0,0-15.75,20.53c4.86,7,9.33,13.91,13.42,21a147,147,0,0,1,13.61-12.89,175.5,175.5,0,0,0-11.28-28.67Zm-28.39,42.58a169,169,0,0,0-9.34,25.62c2.33,4.75,4.67,9.67,6.61,14.58a139.65,139.65,0,0,1,9.14-16.28,181.08,181.08,0,0,0-6.41-23.92Zm-640.64,53.1a79.82,79.82,0,0,0-3.31-8.65c-1,6.61-1.75,13.4-2.14,20.18a103.47,103.47,0,0,1,5.45-11.53Zm-20.81-34.78a82.23,82.23,0,0,0-7-7c2.73,1.69,5.45,3.39,8,5.25a217.23,217.23,0,0,1,17.31-26,170.23,170.23,0,0,0-16.34-24.6,187.89,187.89,0,0,0-21.59,57.85,138.2,138.2,0,0,1,9.14,16.28,187.14,187.14,0,0,1,10.51-21.88Zm19.64,15.1a86,86,0,0,1,7.39,9.5,119.9,119.9,0,0,1,7.58-9.5,166.9,166.9,0,0,0-7.58-24.43,167,167,0,0,0-7.39,24.43Zm13.81,19.68c1.94,3.9,3.69,7.63,5.25,11.53-.39-6.78-1-13.57-2-20.18a51.59,51.59,0,0,0-3.3,8.65Zm-27.81-93.3a203.42,203.42,0,0,1,21.39,20.52,223.83,223.83,0,0,1,21.39-20.52,225,225,0,0,0-21.39-29.18,244.3,244.3,0,0,0-21.39,29.18Zm30.14,30.87a220.36,220.36,0,0,1,17.5,26,85.38,85.38,0,0,1,8-5.25,82.09,82.09,0,0,0-7,7q5.83,10.95,10.5,21.88a115.53,115.53,0,0,1,9.14-16.28,193.15,193.15,0,0,0-21.59-57.85,156.73,156.73,0,0,0-16.53,24.6Zm297.18,29a112.18,112.18,0,0,1,9.33,12.55,146.67,146.67,0,0,1,9.53-12.55,164.44,164.44,0,0,1,3.5-19,128.35,128.35,0,0,0-13-17,174.92,174.92,0,0,0-13,17c1.56,6.28,2.72,12.72,3.7,19Zm160.64.85a124.2,124.2,0,0,1,10.31,14.25c2.14-2.55,4.47-4.92,6.81-7.3a187,187,0,0,1,4.67-26.8c-2.53-3.73-5.26-7.64-8.37-11.37a162,162,0,0,0-13.42,31.22Zm14.59,21.71c.58,1,1.17,2,1.75,2.88,0-2,0-4.24.19-6.44a32.86,32.86,0,0,0-1.94,3.56Zm1.56-57.51a98.79,98.79,0,0,1,8,7,183.35,183.35,0,0,1,17.89-40.38,194.08,194.08,0,0,0-25.86,33.42Zm-93.75,8.15a145.45,145.45,0,0,0-3.3,47.32,239.9,239.9,0,0,1,13.61-31.89,175.57,175.57,0,0,0-10.31-15.43Zm159.87,0a157.09,157.09,0,0,0-3.3,47.32,238.6,238.6,0,0,1,13.61-31.89,141.44,141.44,0,0,0-10.31-15.43Zm-366.41,17.3a154,154,0,0,1,15.17-18,190.12,190.12,0,0,1,9.14,31.72,138.2,138.2,0,0,0-9.14,16.28,200.88,200.88,0,0,0-15.17-30Zm-18.48,10.35a123.53,123.53,0,0,0-10.11,14.25,87.06,87.06,0,0,0-7-7.3,187.61,187.61,0,0,0-4.48-26.8c2.53-3.73,5.25-7.64,8.17-11.37a149.89,149.89,0,0,1,13.42,31.22ZM937.3,1920.8c-.58,1-1.16,2-1.55,2.88,0-2-.2-4.24-.2-6.44.59,1.19,1.17,2.37,1.75,3.56Zm-1.55-57.51c-2.72,2.21-5.45,4.58-8,7a182.36,182.36,0,0,0-17.69-40.38,192.5,192.5,0,0,1,25.67,33.42Zm93.94,8.15a157.09,157.09,0,0,1,3.3,47.32,239.9,239.9,0,0,0-13.61-31.89,141.44,141.44,0,0,1,10.31-15.43Zm-160.07,0a145.46,145.46,0,0,1,3.31,47.32,241.23,241.23,0,0,0-13.61-31.89,175.41,175.41,0,0,1,10.3-15.43ZM624,1927.76a77.88,77.88,0,0,0-4.09-12.9,174.5,174.5,0,0,0-3.5,28.33,87.47,87.47,0,0,1,7.59-15.43Zm-18.29-39a138.7,138.7,0,0,0-15.36-18,190.12,190.12,0,0,0-9.14,31.72,115.53,115.53,0,0,1,9.14,16.28,223.35,223.35,0,0,1,15.36-30Zm-142.36,9.5a113.54,113.54,0,0,1,9.34,12.55,142.65,142.65,0,0,1,9.53-12.55,160.28,160.28,0,0,1,3.5-19,130.08,130.08,0,0,0-13-17,173.48,173.48,0,0,0-13,17c1.56,6.28,2.73,12.72,3.7,19Zm160.65.85a124.11,124.11,0,0,1,10.3,14.25c2.14-2.55,4.48-4.92,6.81-7.3a188.44,188.44,0,0,1,4.67-26.8c-2.53-3.73-5.25-7.64-8.36-11.37A160.74,160.74,0,0,0,624,1899.09Zm14.58,21.71c.59,1,1.17,2,1.75,2.88,0-2,0-4.24.2-6.44a33,33,0,0,0-1.95,3.56Zm1.56-57.51a97.1,97.1,0,0,1,8,7,183.4,183.4,0,0,1,17.9-40.38,194.17,194.17,0,0,0-25.87,33.42Zm-93.74,8.15a145.46,145.46,0,0,0-3.31,47.32,239.9,239.9,0,0,1,13.61-31.89,175.41,175.41,0,0,0-10.3-15.43Zm159.86,0a157.09,157.09,0,0,0-3.3,47.32,239.9,239.9,0,0,1,13.61-31.89,141.44,141.44,0,0,0-10.31-15.43Zm-366.41,17.3a154.94,154.94,0,0,1,15.17-18,190.12,190.12,0,0,1,9.14,31.72,138.2,138.2,0,0,0-9.14,16.28,199.93,199.93,0,0,0-15.17-30Zm-18.48,10.35a154.11,154.11,0,0,0-10.3,14.25,61.59,61.59,0,0,0-6.81-7.3,187.57,187.57,0,0,0-4.47-26.8c2.52-3.73,5.25-7.64,8.16-11.37a149.89,149.89,0,0,1,13.42,31.22Zm-14.58,21.71c-.59,1-1.17,2-1.56,2.88,0-2-.19-4.24-.19-6.44.58,1.19,1.16,2.37,1.75,3.56Zm-1.56-57.51c-2.72,2.21-5.44,4.58-8,7a182.87,182.87,0,0,0-17.7-40.38,192.5,192.5,0,0,1,25.67,33.42Zm93.94,8.15a157.42,157.42,0,0,1,3.31,47.32,240,240,0,0,0-13.62-31.89,141.44,141.44,0,0,1,10.31-15.43Zm-160.06,0a145.45,145.45,0,0,1,3.3,47.32,239.9,239.9,0,0,0-13.61-31.89,141.44,141.44,0,0,1,10.31-15.43Zm1937.48,56.32a76.91,76.91,0,0,1,4.08-12.9,173.4,173.4,0,0,1,3.5,28.33,128,128,0,0,0-7.58-15.43Zm302.42,0a76.91,76.91,0,0,0-4.08-12.9,197,197,0,0,0-3.5,28.33,128,128,0,0,1,7.58-15.43Zm-18.28-39a154,154,0,0,0-15.17-18,190.12,190.12,0,0,0-9.14,31.72,172,172,0,0,1,9.14,16.28,200.88,200.88,0,0,1,15.17-30Zm-454.51,42.92a52.53,52.53,0,0,0-3.31-8.65c-1,6.61-1.75,13.4-2.14,20.18,1.56-3.9,3.5-7.63,5.45-11.53Zm-20.81-34.78a82.23,82.23,0,0,0-7-7,85.38,85.38,0,0,1,8,5.25,220.36,220.36,0,0,1,17.5-26,156.73,156.73,0,0,0-16.53-24.6,193.15,193.15,0,0,0-21.59,57.85,138.2,138.2,0,0,1,9.14,16.28q4.68-10.93,10.51-21.88ZM2005,1912a119.9,119.9,0,0,1,7.58,9.5,86,86,0,0,1,7.39-9.5,165.82,165.82,0,0,0-7.39-24.43A168.12,168.12,0,0,0,2005,1912Zm13.81,19.68a101.61,101.61,0,0,1,5.44,11.53c-.39-6.78-1.16-13.57-2.14-20.18a77.71,77.71,0,0,0-3.3,8.65Zm-27.81-93.3a204.81,204.81,0,0,1,21.58,20.52,202.58,202.58,0,0,1,21.4-20.52,244.42,244.42,0,0,0-21.4-29.18,246.71,246.71,0,0,0-21.58,29.18Zm30.14,30.87a199.34,199.34,0,0,1,17.51,26c2.52-1.86,5.25-3.56,8-5.25a82.09,82.09,0,0,0-7,7q5.83,10.95,10.5,21.88a138.2,138.2,0,0,1,9.14-16.28,187.89,187.89,0,0,0-21.59-57.85,189.43,189.43,0,0,0-16.53,24.6Zm297.18,29a146.67,146.67,0,0,1,9.53,12.55,112.18,112.18,0,0,1,9.33-12.55,163.27,163.27,0,0,1,3.7-19,174.92,174.92,0,0,0-13-17,128.35,128.35,0,0,0-13,17,164.44,164.44,0,0,1,3.5,19Zm160.64.85a104.84,104.84,0,0,1,10.31,14.25,85.49,85.49,0,0,1,7-7.3,187.61,187.61,0,0,1,4.48-26.8c-2.53-3.73-5.25-7.64-8.17-11.37a162.41,162.41,0,0,0-13.62,31.22Zm14.78,21.71c.59,1,1,2,1.56,2.88,0-2,0-4.24.2-6.44l-1.76,3.56Zm1.56-57.51c2.72,2.21,5.45,4.58,8,7a182.87,182.87,0,0,1,17.7-40.38,192.5,192.5,0,0,0-25.67,33.42Zm-93.94,8.15a157.09,157.09,0,0,0-3.3,47.32,239.9,239.9,0,0,1,13.61-31.89,141.44,141.44,0,0,0-10.31-15.43Zm160.07,0a151.11,151.11,0,0,0-3.5,47.32,271.08,271.08,0,0,1,13.8-31.89,175.41,175.41,0,0,0-10.3-15.43Zm-366.61,17.3a139.48,139.48,0,0,1,15.36-18,189.33,189.33,0,0,1,9,31.72,136.71,136.71,0,0,0-9,16.28,222.19,222.19,0,0,0-15.36-30Zm-18.28,10.35a124.2,124.2,0,0,0-10.31,14.25,85.49,85.49,0,0,0-7-7.3,163.18,163.18,0,0,0-4.48-26.8c2.53-3.73,5.26-7.64,8.37-11.37a162,162,0,0,1,13.42,31.22ZM2162,1920.8c-.58,1-1.17,2-1.75,2.88,0-2,0-4.24-.19-6.44a32.86,32.86,0,0,1,1.94,3.56Zm-1.56-57.51a98.79,98.79,0,0,0-8,7,183.35,183.35,0,0,0-17.89-40.38,204,204,0,0,1,25.86,33.42Zm93.75,8.15a145.45,145.45,0,0,1,3.3,47.32,239.9,239.9,0,0,0-13.61-31.89,141.44,141.44,0,0,1,10.31-15.43Zm-159.87,0a157.09,157.09,0,0,1,3.3,47.32,267.84,267.84,0,0,0-13.61-31.89,117.44,117.44,0,0,1,10.31-15.43Zm-245.83,56.32a77.88,77.88,0,0,0-4.09-12.9,199.87,199.87,0,0,0-3.5,28.33,126.61,126.61,0,0,1,7.59-15.43Zm-18.28-39a154.94,154.94,0,0,0-15.17-18,189.22,189.22,0,0,0-9.15,31.72,174.34,174.34,0,0,1,9.15,16.28,199.93,199.93,0,0,1,15.17-30Zm-142.37,9.5a146.67,146.67,0,0,1,9.53,12.55,111.06,111.06,0,0,1,9.34-12.55,161.16,161.16,0,0,1,3.69-19,174.92,174.92,0,0,0-13-17,128.35,128.35,0,0,0-13,17,162.33,162.33,0,0,1,3.5,19Zm160.65.85a103.9,103.9,0,0,1,10.3,14.25,85.63,85.63,0,0,1,7-7.3,186.17,186.17,0,0,1,4.47-26.8c-2.53-3.73-5.25-7.64-8.17-11.37a162.36,162.36,0,0,0-13.61,31.22Zm14.78,21.71c.58,1,1,2,1.55,2.88,0-2,0-4.24.2-6.44-.59,1.19-1.17,2.37-1.75,3.56Zm1.55-57.51c2.73,2.21,5.45,4.58,8,7a173.54,173.54,0,0,1,17.7-40.38,192.58,192.58,0,0,0-25.68,33.42Zm-93.93,8.15a156.77,156.77,0,0,0-3.31,47.32,241.23,241.23,0,0,1,13.61-31.89,139.89,139.89,0,0,0-10.3-15.43Zm160.06,0a151.11,151.11,0,0,0-3.5,47.32,269.5,269.5,0,0,1,13.81-31.89,175.57,175.57,0,0,0-10.31-15.43Zm-366.61,17.3a139.6,139.6,0,0,1,15.37-18,188.35,188.35,0,0,1,8.94,31.72,136.63,136.63,0,0,0-8.94,16.28,222.26,222.26,0,0,0-15.37-30Zm-18.28,10.35a124.2,124.2,0,0,0-10.31,14.25,85.49,85.49,0,0,0-7-7.3,164.21,164.21,0,0,0-4.47-26.8c2.53-3.73,5.25-7.64,8.36-11.37a162,162,0,0,1,13.42,31.22Zm-14.59,21.71c-.58,1-1.16,2-1.75,2.88,0-2,0-4.24-.19-6.44a31.22,31.22,0,0,1,1.94,3.56Zm-1.55-57.51a97.27,97.27,0,0,0-8,7,183.35,183.35,0,0,0-17.89-40.38,204.69,204.69,0,0,1,25.87,33.42Zm93.74,8.15a150.9,150.9,0,0,1,3.31,47.32,240,240,0,0,0-13.62-31.89,141.44,141.44,0,0,1,10.31-15.43Zm-159.87,0a157.1,157.1,0,0,1,3.31,47.32,269.57,269.57,0,0,0-13.62-31.89,118.44,118.44,0,0,1,10.31-15.43Z" transform="translate(-67.46 -56.3)"/></svg>